<svg width="100" height="28" viewBox="0 0 100 28" fill="none" xmlns="http://www.w3.org/2000/svg">
<mask id="mask0_48_4575" style="mask-type:luminance" maskUnits="userSpaceOnUse" x="0" y="0" width="100" height="28">
<path d="M99.809 0.691406H0.858398V27.1234H99.809V0.691406Z" fill="white"/>
</mask>
<g mask="url(#mask0_48_4575)">
<path d="M40.3027 16.7542C40.3027 19.0586 38.405 20.6852 36.1007 20.6852H30.6109C30.4754 20.6852 30.3398 20.5496 30.3398 20.4141V7.3336C30.3398 7.19805 30.4754 7.0625 30.6109 7.0625H35.694C37.9984 7.0625 39.8283 8.62131 39.8283 10.8579C39.8283 12.01 39.3538 12.9589 38.5405 13.5688C39.6249 14.3144 40.3027 15.331 40.3027 16.7542ZM32.983 9.63793V12.62H35.694C36.5073 12.62 37.1173 12.01 37.1173 11.129C37.1173 10.2479 36.5073 9.63793 35.694 9.63793H32.983ZM37.6595 16.6187C37.6595 15.7376 36.9817 14.9921 36.1007 14.9921H32.983V18.1775H36.1007C36.9817 18.1775 37.6595 17.4998 37.6595 16.6187Z" fill="white"/>
<path d="M41.998 8.28147C41.998 7.46817 42.6758 6.72266 43.5569 6.72266C44.4379 6.72266 45.1157 7.46817 45.1157 8.28147C45.1157 9.09476 44.4379 9.84028 43.5569 9.84028C42.7436 9.84028 41.998 9.16253 41.998 8.28147ZM42.5402 10.9924H44.5735C44.709 10.9924 44.8446 11.128 44.8446 11.2635V20.4809C44.8446 20.6164 44.709 20.752 44.5735 20.752H42.5402C42.4047 20.752 42.2691 20.6164 42.2691 20.4809V11.2635C42.3369 11.128 42.4047 10.9924 42.5402 10.9924Z" fill="white"/>
<path d="M50.9436 13.4335V17.5C50.9436 18.5166 51.6214 18.5844 52.9091 18.5166C53.0446 18.5166 53.1802 18.6522 53.1802 18.7877V20.5498C53.1802 20.6854 53.1124 20.7532 52.9768 20.8209C49.6559 21.1598 48.5037 20.0754 48.5037 17.5V13.4335H46.9449C46.8094 13.4335 46.6738 13.298 46.6738 13.1624V11.2648C46.6738 11.1292 46.8094 10.9937 46.9449 10.9937H48.3682V9.36707C48.3682 8.96042 48.6393 8.55378 49.0459 8.41823L50.537 7.94381C50.6725 7.87603 50.8758 8.01158 50.8758 8.14713V10.9259H52.8413C52.9768 10.9259 53.1124 11.0614 53.1124 11.197V13.0947C53.1124 13.2302 52.9768 13.3658 52.8413 13.3658H50.9436V13.4335Z" fill="white"/>
<path d="M61.9228 19.8719L57.7207 14.5855V20.4818C57.7207 20.6174 57.5852 20.7529 57.4496 20.7529H55.2809C55.1453 20.7529 55.0098 20.6174 55.0098 20.4818V7.3336C55.0098 7.19805 55.1453 7.0625 55.2809 7.0625H57.4496C57.5852 7.0625 57.7207 7.19805 57.7207 7.3336V13.2977L61.9228 7.94357C62.3294 7.40137 63.0071 7.0625 63.6849 7.0625H65.1759C65.3793 7.0625 65.5148 7.26582 65.3792 7.46915L60.4317 13.9077L65.3792 20.2785C65.5148 20.4141 65.3793 20.6852 65.1759 20.6852H63.6849C62.9394 20.6852 62.3294 20.4141 61.9228 19.8719Z" fill="white"/>
<path d="M71.2083 18.7214C72.0893 18.7214 72.8349 18.3825 73.2415 17.9081C73.3093 17.8403 73.4448 17.7726 73.5804 17.8403L75.207 18.7892C75.3425 18.857 75.3425 19.0603 75.2747 19.128C74.3259 20.2802 72.9704 20.958 71.2083 20.958C67.9551 20.958 65.9219 18.7214 65.9219 15.8071C65.9219 12.8928 68.0229 10.6562 71.0727 10.6562C73.9193 10.6562 75.9525 12.9606 75.9525 15.8071C75.9525 16.146 75.8847 16.4848 75.8847 16.8237H68.5651C68.7684 18.1792 69.8528 18.7214 71.2083 18.7214ZM73.3771 14.926C73.0382 13.5028 72.0216 12.9606 70.9372 12.9606C69.5817 12.9606 68.7006 13.7061 68.3618 14.926H73.3771Z" fill="white"/>
<path d="M82.7981 18.7214C83.6792 18.7214 84.4247 18.3825 84.8313 17.9081C84.8991 17.8403 85.0347 17.7726 85.1702 17.8403L86.7968 18.7892C86.9324 18.857 86.9324 19.0603 86.8646 19.128C85.9157 20.2802 84.5603 20.958 82.7981 20.958C79.5449 20.958 77.5117 18.7214 77.5117 15.8071C77.5117 12.8928 79.6127 10.6562 82.6626 10.6562C85.5091 10.6562 87.5423 12.9606 87.5423 15.8071C87.5423 16.146 87.4746 16.4848 87.4746 16.8237H80.1549C80.426 18.1792 81.5104 18.7214 82.7981 18.7214ZM84.9669 14.926C84.628 13.5028 83.6114 12.9606 82.527 12.9606C81.1715 12.9606 80.2905 13.7061 79.9516 14.926H84.9669Z" fill="white"/>
<path d="M99.8093 15.8735C99.8093 18.7878 97.7083 21.0244 95.0651 21.0244C93.6419 21.0244 92.6252 20.4822 91.9475 19.6011V24.4131C91.9475 24.5486 91.8119 24.6842 91.6764 24.6842H89.6432C89.5076 24.6842 89.3721 24.5486 89.3721 24.4131V11.2649C89.3721 11.1293 89.5076 10.9938 89.6432 10.9938H91.6764C91.8119 10.9938 91.9475 11.1293 91.9475 11.2649V12.1459C92.6252 11.2649 93.6419 10.7227 95.0651 10.7227C97.7083 10.7227 99.8093 12.9592 99.8093 15.8735ZM97.3017 15.8735C97.3017 14.2469 96.1495 13.1625 94.5907 13.1625C93.0319 13.1625 91.8797 14.2469 91.8797 15.8735C91.8797 17.5001 93.0319 18.5845 94.5907 18.5845C96.1495 18.5845 97.3017 17.5001 97.3017 15.8735Z" fill="white"/>
<path d="M16.1754 25.0924L5.39928 18.8571C4.99264 18.6538 4.78931 18.2471 4.78931 17.7727V5.23445C4.78931 5.03112 4.58599 4.89558 4.45044 5.03113L2.21389 6.31884C1.40059 6.79326 0.858398 7.67433 0.858398 8.69094V19.196C0.858398 20.1448 1.40059 21.0259 2.21389 21.5681L11.2957 26.8545C12.109 27.3289 13.1933 27.3289 14.0066 26.8545L16.2432 25.5668C16.3787 25.3634 16.3787 25.1601 16.1754 25.0924Z" fill="white"/>
<path d="M7.36485 17.7005L12.0413 20.4115C12.4479 20.6148 12.9224 20.6148 13.2612 20.4115L17.9377 17.7005C18.3443 17.4972 18.5476 17.0905 18.5476 16.6161V11.1942C18.5476 10.7875 18.3443 10.3809 17.9377 10.1098L13.2612 7.39879C12.8546 7.19547 12.3802 7.19547 12.0413 7.39879L10.8891 8.07653C10.8213 8.14431 10.6858 8.07653 10.6858 7.94098V1.77351C10.6858 1.57019 10.4825 1.43464 10.3469 1.57019L7.36485 3.26455C6.95821 3.46787 6.75488 3.87452 6.75488 4.34894V16.5483C6.75488 17.0228 6.95821 17.4294 7.36485 17.7005ZM10.0758 12.8207C10.0758 12.5496 10.2114 12.3463 10.4147 12.2108L12.2446 11.1264C12.4479 10.9908 12.7868 10.9908 12.9901 11.1264L14.82 12.2108C15.0234 12.3463 15.1589 12.6174 15.1589 12.8207V14.9217C15.1589 15.1928 15.0234 15.3962 14.82 15.5317L12.9901 16.6161C12.7868 16.7517 12.4479 16.7517 12.2446 16.6161L10.4147 15.5995C10.2114 15.4639 10.0758 15.1928 10.0758 14.9895V12.8207Z" fill="white"/>
<path d="M23.0876 6.31668L14.0059 1.03028C13.5992 0.826955 13.1926 0.691406 12.7859 0.691406C12.7182 0.691406 12.6504 0.759181 12.6504 0.826956V4.6901C12.6504 4.75787 12.7182 4.82565 12.7859 4.89342L19.9023 9.02766C20.3089 9.23098 20.5122 9.63763 20.5122 10.1121V17.7706C20.5122 18.1772 20.3089 18.5839 19.9023 18.8549L15.0225 21.7015C14.8869 21.7692 14.8869 22.0403 15.0225 22.1081L18.3434 24.0058C18.479 24.0736 18.6823 24.0736 18.8179 24.0058L23.0876 21.4981C23.9009 21.0237 24.4431 20.1427 24.4431 19.126V8.62101C24.3754 7.67217 23.9009 6.7911 23.0876 6.31668Z" fill="white"/>
</g>
</svg>
