<svg width="142" height="35" viewBox="0 0 142 35" fill="none" xmlns="http://www.w3.org/2000/svg">
<path d="M2.3878 10.3649V24.8762L0.483398 25.9787V9.27344L2.3878 10.3649Z" fill="white"/>
<path d="M29.4281 9.26338L27.5237 10.3659L14.9502 3.11584V0.921875L29.4281 9.26338Z" fill="white"/>
<path d="M29.4277 25.9742L14.9609 34.3269V32.1329L27.5344 24.8828L29.4277 25.9742Z" fill="white"/>
<g opacity="0.3">
<path opacity="0.3" d="M14.9609 32.1245V34.3185L0.494141 25.9658L2.39854 24.8633L14.9609 32.1245Z" fill="white"/>
</g>
<g opacity="0.3">
<path opacity="0.3" d="M29.4278 9.26172V25.967L27.5234 24.8645V10.3643L29.4278 9.26172Z" fill="white"/>
</g>
<g opacity="0.3">
<path opacity="0.3" d="M14.9619 0.910156V3.10412L2.39952 10.3542L0.495117 9.25166L14.9619 0.910156Z" fill="white"/>
</g>
<path fill-rule="evenodd" clip-rule="evenodd" d="M14.9498 10.1406L19.928 11.6441C19.9948 11.6775 20.0616 11.7332 20.095 11.8C20.1285 11.8668 20.1396 11.9559 20.1062 12.0228C20.0839 12.1007 20.0394 12.1564 19.9725 12.2009C19.9057 12.2455 19.8278 12.2566 19.7498 12.2455L14.9498 10.7977L10.161 12.2455C10.083 12.2566 10.005 12.2455 9.93823 12.2009C9.87141 12.1564 9.82686 12.1007 9.80459 12.0228C9.78231 11.9448 9.78231 11.8668 9.81572 11.8C9.84913 11.7332 9.90482 11.6775 9.98277 11.6441L14.9498 10.1406Z" fill="white"/>
<path fill-rule="evenodd" clip-rule="evenodd" d="M22.1331 12.5371C22.122 12.4703 22.0886 12.4034 22.0441 12.3589C21.9995 12.3144 21.9327 12.2809 21.8659 12.2698C21.799 12.2587 21.7322 12.2698 21.6654 12.3032C21.6097 12.3366 21.554 12.3812 21.5206 12.448L18.6362 18.0832H11.2747L8.39027 12.448C8.35686 12.3923 8.31231 12.3478 8.25662 12.3144C8.20094 12.2809 8.13412 12.2698 8.0673 12.2698C8.00048 12.2809 7.92252 12.3032 7.87797 12.3589C7.82229 12.4034 7.78888 12.4703 7.77774 12.5482C7.51046 14.3747 7.61069 16.2234 8.05616 18.0164C8.76892 20.8118 10.5508 24.0749 14.8162 26.1575L14.9499 26.2243L15.0835 26.1575C19.3378 24.086 21.142 20.8118 21.8436 18.0053C22.3002 16.2122 22.4004 14.3524 22.1331 12.5371ZM8.67982 17.8494C8.34572 16.4684 8.21208 15.054 8.30117 13.6396L10.807 18.5287L14.2037 25.1217C10.7847 23.1394 9.29235 20.3106 8.67982 17.8494ZM14.9499 25.1886L11.5977 18.7069H18.3021L14.9499 25.1886ZM21.2422 17.8494C20.6185 20.3106 19.1262 23.1394 15.7072 25.1217L19.1151 18.5399L21.6208 13.6508C21.7099 15.054 21.5763 16.4684 21.2422 17.8494Z" fill="white"/>
<path fill-rule="evenodd" clip-rule="evenodd" d="M39.385 18.9208C39.5743 19.1212 39.8082 19.2771 40.0643 19.3774C40.3205 19.4776 40.5989 19.5333 40.8662 19.5333H51.3237V18.1189H40.8662C40.688 18.1189 40.5098 18.0521 40.3762 17.9296C40.2537 17.7959 40.1868 17.6177 40.1868 17.4396V9.04236C40.1868 8.95327 40.198 8.86418 40.2314 8.78622C40.2648 8.70826 40.3093 8.6303 40.3762 8.57462C40.443 8.5078 40.5098 8.45211 40.5989 8.4187C40.688 8.38529 40.7771 8.36302 40.8662 8.36302H51.3237V6.94864H40.8662C40.5878 6.94864 40.3205 7.00432 40.0643 7.10455C39.8082 7.20478 39.5743 7.3607 39.385 7.56116C39.1845 7.76163 39.0397 7.98437 38.9284 8.24051C38.8281 8.49666 38.7725 8.76394 38.7725 9.04236V17.4396C38.7725 17.718 38.817 17.9853 38.9284 18.2414C39.0286 18.4976 39.1845 18.7314 39.385 18.9208ZM59.4425 6.9375V19.5333H70.9357V18.1189H60.8568V13.9537H68.9533V12.5282H60.8568V8.36302H70.9357V6.94864H59.4425V6.9375ZM79.0211 19.5333V6.95978H89.5231C90.0799 6.97091 90.6034 7.19365 91.0043 7.58344C91.3941 7.97323 91.6168 8.5078 91.628 9.06464V12.7509C91.628 13.0294 91.5834 13.2966 91.4721 13.5528C91.3718 13.8089 91.2159 14.0428 91.0154 14.2321C90.8261 14.4326 90.5922 14.5885 90.3361 14.6888C90.08 14.789 89.8015 14.8447 89.5342 14.8447H87.6076L91.5612 19.5221V19.5333H89.6902L85.7589 14.8447L80.4577 14.8224V19.5221H79.0211V19.5333ZM81.1259 13.408H89.5231C89.6122 13.408 89.7013 13.3969 89.7793 13.3635C89.8572 13.3301 89.9352 13.2855 89.9909 13.2187C90.0577 13.1519 90.1022 13.085 90.1356 13.0071C90.169 12.9291 90.1802 12.84 90.1802 12.7509V9.06464C90.1802 8.97554 90.169 8.88645 90.1356 8.80849C90.1022 8.73054 90.0577 8.65257 89.9909 8.59689C89.9352 8.53007 89.8572 8.47439 89.7793 8.44098C89.7013 8.40756 89.6122 8.38529 89.5231 8.38529H81.1259C81.0368 8.38529 80.9477 8.40756 80.8586 8.44098C80.7695 8.47439 80.7027 8.53007 80.6359 8.59689C80.5691 8.66371 80.5245 8.73054 80.4911 8.80849C80.4577 8.88645 80.4466 8.97554 80.4466 9.06464V12.7509C80.4466 12.84 80.4577 12.9291 80.4911 13.0071C80.5245 13.085 80.5691 13.163 80.6359 13.2187C80.7695 13.3412 80.9366 13.408 81.1259 13.408ZM104.68 8.35188V19.5333H106.095V8.35188H111.674V6.9375H99.0897V8.35188H104.68ZM119.169 6.9375H120.606V19.5333H119.169V6.9375ZM129.237 6.9375V19.5333H130.674V13.9537H134.728L139.416 19.5333H141.254V19.5221L135.975 13.241L141.243 6.95978V6.94864H139.427L134.739 12.5282H130.685V6.94864H129.237V6.9375Z" fill="white"/>
<path d="M120.628 19.5649H119.136V6.91348H120.617V19.5649H120.628ZM119.192 19.5093H120.572V6.96917H119.192V19.5093ZM141.287 19.5538H139.416L139.405 19.5427L134.727 13.9742H130.707V19.5538H129.215V6.91348H130.707V12.493H134.727L139.416 6.91348H141.276V6.96917L141.265 6.9803L136.019 13.2504L141.298 19.5204L141.287 19.5538ZM139.438 19.5093H141.22L135.952 13.2392L135.964 13.2169L141.209 6.95803H139.449L134.761 12.5376H130.662V6.95803H129.27V19.4981H130.651V13.9186H134.75L134.761 13.9297L139.438 19.5093ZM106.139 19.5538H104.669V8.37241H99.0783V6.90234H111.73V8.37241H106.15V19.5538H106.139ZM104.714 19.5093H106.083V8.32786H111.663V6.96917H99.1118V8.32786H104.702L104.714 19.5093ZM91.5832 19.5538H89.6677L89.6566 19.5427L85.7253 14.8652L80.4575 14.8541V19.5538H78.9875V6.92462H89.5118C90.0686 6.92462 90.6143 7.15849 91.0041 7.54828C91.4051 7.94921 91.6278 8.48378 91.6278 9.04062V12.7381C91.6278 13.0165 91.5721 13.2949 91.4719 13.551C91.3716 13.8072 91.2046 14.0411 91.0153 14.2415C90.8148 14.442 90.5809 14.5979 90.3248 14.7093C90.0686 14.8206 89.7902 14.8652 89.5118 14.8652H87.6408L91.561 19.4981L91.5832 19.5538ZM89.69 19.5093H91.5053L87.5406 14.8206H89.5229C89.7902 14.8206 90.0575 14.7761 90.3136 14.6647C90.5587 14.5645 90.7925 14.4086 90.9818 14.2081C91.1712 14.0188 91.3271 13.7849 91.4273 13.5399C91.5276 13.2838 91.5832 13.0165 91.5832 12.7492V9.06289C91.5832 8.51719 91.3605 7.99375 90.9707 7.60396C90.5809 7.21417 90.0575 6.99144 89.5118 6.99144H79.0431V19.5204H80.413V14.7984L85.7587 14.8206L85.7698 14.8318L89.69 19.5093ZM70.9578 19.5538H59.4089V6.91348H70.9578V8.37241H60.8789V12.4819H68.9754V13.9742H60.8789V18.0837H70.9578V19.5538ZM59.4646 19.5093H70.9021V18.1394H60.8232V13.9186H68.9197V12.5376H60.8232V8.31672H70.9021V6.95803H59.4646V19.5093ZM51.3681 19.5538H40.8771C40.5987 19.5538 40.3203 19.5093 40.0641 19.3979C39.808 19.2865 39.5741 19.1306 39.3737 18.9301C39.1732 18.7297 39.0173 18.4958 38.9059 18.2397C38.7945 17.9835 38.75 17.7051 38.75 17.4267V9.02948C38.75 8.75106 38.8057 8.47264 38.9059 8.21649C39.0173 7.96034 39.1732 7.72647 39.3625 7.52601C39.563 7.32554 39.7969 7.16963 40.053 7.0694C40.3092 6.95803 40.5876 6.91348 40.866 6.91348H51.3569V8.38354H40.8771C40.788 8.38354 40.6989 8.40582 40.621 8.43923C40.543 8.47264 40.4651 8.52833 40.4094 8.58401C40.3537 8.63969 40.298 8.71765 40.2646 8.79561C40.2312 8.87357 40.2201 8.96266 40.2201 9.04062V17.4378C40.2201 17.5269 40.2312 17.616 40.2646 17.694C40.298 17.7719 40.3426 17.8499 40.4094 17.9056C40.4762 17.9724 40.543 18.0169 40.621 18.0503C40.6989 18.0837 40.788 18.0949 40.8771 18.0949H51.3569L51.3681 19.5538ZM39.4071 18.8967C39.5964 19.0972 39.8303 19.242 40.0753 19.3533C40.3314 19.4536 40.5987 19.5093 40.8771 19.4981H51.3124V18.1394H40.8771C40.6878 18.1394 40.5096 18.0726 40.3648 17.939C40.2312 17.8053 40.1644 17.616 40.1644 17.4267V9.02948C40.1644 8.94039 40.1755 8.85129 40.2089 8.7622C40.2423 8.6731 40.298 8.60628 40.3648 8.53946C40.4317 8.47264 40.5096 8.41695 40.5987 8.38354C40.6878 8.35013 40.7769 8.32786 40.8771 8.32786H51.3124V6.95803H40.8771C40.6099 6.95803 40.3314 7.01371 40.0864 7.11394C39.8303 7.21417 39.6075 7.37009 39.4182 7.55942C39.2289 7.74874 39.073 7.98262 38.9727 8.22763C38.8725 8.48378 38.8168 8.75106 38.8168 9.01835V17.4155C38.8168 17.694 38.8614 17.9612 38.9727 18.2063C39.0618 18.4847 39.2066 18.7074 39.4071 18.8967ZM89.5229 13.4397H81.1257C80.9364 13.4397 80.7582 13.3729 80.6134 13.2392C80.5466 13.1724 80.4909 13.0944 80.4575 13.0165C80.4241 12.9274 80.4018 12.8383 80.413 12.7492V9.06289C80.413 8.9738 80.4241 8.8847 80.4575 8.79561C80.4909 8.70651 80.5466 8.63969 80.6134 8.57287C80.6803 8.50605 80.7582 8.45037 80.8473 8.41696C80.9364 8.38355 81.0255 8.36127 81.1257 8.36127H89.5229C89.612 8.36127 89.7122 8.38355 89.7902 8.41696C89.8793 8.45037 89.9461 8.50605 90.0129 8.58401C90.0798 8.65083 90.1355 8.72879 90.1689 8.80675C90.2023 8.89584 90.2245 8.98494 90.2134 9.07403V12.7603C90.2134 12.8494 90.1911 12.9385 90.1577 13.0276C90.1243 13.1167 90.0686 13.1835 90.0129 13.2504C89.9461 13.3172 89.8682 13.3617 89.7902 13.3951C89.7011 13.4174 89.612 13.4397 89.5229 13.4397ZM81.1257 8.39468C81.0366 8.39468 80.9475 8.41696 80.8696 8.45037C80.7916 8.48378 80.7137 8.53946 80.658 8.59514C80.6023 8.65083 80.5466 8.72879 80.5243 8.80675C80.4909 8.8847 80.4798 8.9738 80.4798 9.05176V12.7381C80.4798 12.8271 80.4909 12.9051 80.5243 12.9831C80.5578 13.061 80.6023 13.1278 80.658 13.1947C80.7805 13.3172 80.9587 13.384 81.1257 13.384H89.5229C89.612 13.384 89.69 13.3729 89.7679 13.3394C89.8459 13.306 89.9127 13.2615 89.9795 13.1947C90.0352 13.139 90.0909 13.061 90.1243 12.9831C90.1577 12.9051 90.1689 12.816 90.1689 12.7381V9.05176C90.1689 8.96266 90.1577 8.8847 90.1243 8.80675C90.0909 8.72879 90.0464 8.66196 89.9795 8.59514C89.9239 8.52832 89.857 8.48378 89.7791 8.43923C89.7011 8.40582 89.612 8.38354 89.5341 8.38354H81.1257V8.39468Z" fill="white"/>
<path d="M42.9597 27.4239H42.492V27.2569C42.492 27.2012 42.4697 27.1455 42.4251 27.101C42.3806 27.0564 42.3249 27.0342 42.2692 27.0342H39.4961C39.4405 27.0342 39.3848 27.0564 39.3402 27.101C39.2957 27.1455 39.2734 27.2012 39.2734 27.2569V28.1924C39.2734 28.2481 39.2957 28.3038 39.3402 28.3483C39.3848 28.3929 39.4405 28.4151 39.4961 28.4151H42.2692C42.3583 28.4151 42.4474 28.4374 42.5365 28.4708C42.6256 28.5042 42.6924 28.5599 42.7592 28.6267C42.8261 28.6935 42.8706 28.7715 42.9152 28.8495C42.9486 28.9386 42.9708 29.0276 42.9708 29.1167V30.0522C42.9708 30.1413 42.9597 30.2304 42.9152 30.3195C42.8818 30.4086 42.8261 30.4866 42.7592 30.5423C42.6924 30.6091 42.6145 30.6536 42.5365 30.6982C42.4474 30.7316 42.3583 30.7539 42.2692 30.7539H39.4961C39.4071 30.7539 39.318 30.7316 39.2289 30.6982C39.1398 30.6648 39.0729 30.6091 39.0061 30.5423C38.9393 30.4754 38.8948 30.3975 38.8613 30.3195C38.8279 30.2304 38.8057 30.1413 38.8057 30.0522V29.8852H39.2734V30.0522C39.2734 30.1079 39.2957 30.1636 39.3402 30.2082C39.3848 30.2527 39.4405 30.275 39.4961 30.275H42.2692C42.3249 30.275 42.3806 30.2527 42.4251 30.2082C42.4697 30.1636 42.492 30.1079 42.492 30.0522V29.1167C42.492 29.0611 42.4697 29.0054 42.4251 28.9608C42.3806 28.9163 42.3249 28.894 42.2692 28.894H39.4961C39.4071 28.894 39.318 28.8717 39.2289 28.8383C39.1398 28.8049 39.0729 28.7492 39.0061 28.6824C38.9393 28.6156 38.8948 28.5376 38.8613 28.4597C38.8279 28.3706 38.8057 28.2815 38.8057 28.1924V27.2569C38.8057 27.1678 38.8168 27.0787 38.8613 26.9896C38.8948 26.9005 38.9504 26.8337 39.0061 26.7669C39.0729 26.7 39.1509 26.6555 39.2289 26.6221C39.318 26.5887 39.4071 26.5664 39.4961 26.5664H42.2692C42.3583 26.5664 42.4474 26.5775 42.5365 26.6221C42.6256 26.6555 42.7036 26.7112 42.7592 26.7669C42.8261 26.8337 42.8706 26.9116 42.9152 26.9896C42.9486 27.0787 42.9708 27.1678 42.9708 27.2569V27.4239H42.9597Z" fill="white"/>
<path d="M42.2581 30.7672H39.485C39.3848 30.7672 39.2957 30.7449 39.2066 30.7115C39.1175 30.6781 39.0396 30.6224 38.9727 30.5556C38.9059 30.4887 38.8502 30.4108 38.8168 30.3217C38.7834 30.2326 38.7611 30.1435 38.7611 30.0433V29.8539H39.2957V30.0433C39.2957 30.0989 39.318 30.1435 39.3514 30.1769C39.3848 30.2103 39.4405 30.2326 39.485 30.2326H42.2581C42.3138 30.2326 42.3583 30.2103 42.3917 30.1769C42.4252 30.1435 42.4474 30.0878 42.4474 30.0433V29.1078C42.4474 29.0521 42.4252 29.0075 42.3917 28.9741C42.3583 28.9407 42.3027 28.9184 42.2581 28.9184H39.4739C39.2846 28.9184 39.0952 28.8405 38.9616 28.7068C38.828 28.5732 38.75 28.3839 38.75 28.1945V27.2591C38.75 27.1588 38.7723 27.0697 38.8057 26.9806C38.8391 26.8915 38.8948 26.8136 38.9616 26.7468C39.0284 26.6799 39.1064 26.6243 39.1955 26.5908C39.2846 26.5574 39.3737 26.5352 39.4739 26.5352H42.247C42.3472 26.5352 42.4363 26.5574 42.5254 26.5908C42.6145 26.6243 42.6924 26.6799 42.7593 26.7468C42.8261 26.8136 42.8818 26.8915 42.9152 26.9806C42.9486 27.0697 42.9709 27.1588 42.9709 27.2591V27.4484H42.4363V27.2591C42.4363 27.2034 42.414 27.1588 42.3806 27.1254C42.3472 27.092 42.2915 27.0697 42.247 27.0697H39.4739C39.4182 27.0697 39.3737 27.092 39.3403 27.1254C39.3068 27.1588 39.2846 27.2145 39.2846 27.2591V28.1945C39.2846 28.2502 39.3068 28.2948 39.3403 28.3282C39.3737 28.3616 39.4293 28.3839 39.4739 28.3839H42.247C42.4363 28.3839 42.6256 28.4618 42.7593 28.5955C42.8929 28.7291 42.9709 28.9184 42.9709 29.1078V30.0433C42.9709 30.1435 42.9486 30.2326 42.9152 30.3217C42.8818 30.4108 42.8261 30.4887 42.7593 30.5556C42.6924 30.6224 42.6145 30.6781 42.5254 30.7115C42.4474 30.7449 42.3583 30.7672 42.2581 30.7672ZM38.828 29.9096V30.0433C38.828 30.1324 38.8391 30.2215 38.8725 30.2994C38.9059 30.3774 38.9505 30.4553 39.0173 30.511C39.0841 30.5778 39.1509 30.6224 39.2289 30.6558C39.3068 30.6892 39.3959 30.7003 39.485 30.7003H42.2581C42.3472 30.7003 42.4363 30.6892 42.5143 30.6558C42.5922 30.6224 42.6702 30.5778 42.7259 30.511C42.7927 30.4442 42.8372 30.3774 42.8706 30.2994C42.904 30.2215 42.9152 30.1324 42.9152 30.0433V29.1078C42.9152 28.9296 42.8484 28.7625 42.7147 28.64C42.5922 28.5175 42.4252 28.4507 42.247 28.4396H39.4628C39.3959 28.4396 39.3291 28.4173 39.2846 28.3616C39.24 28.317 39.2066 28.2502 39.2066 28.1834V27.2479C39.2066 27.1811 39.24 27.1143 39.2846 27.0697C39.3291 27.0252 39.3959 26.9918 39.4628 26.9918H42.2358C42.3027 26.9918 42.3695 27.0252 42.414 27.0697C42.4586 27.1143 42.492 27.1811 42.492 27.2479V27.3816H42.904V27.2479C42.904 27.1588 42.8929 27.0697 42.8595 26.9918C42.8261 26.9138 42.7815 26.8358 42.7147 26.7802C42.6479 26.7133 42.5811 26.6688 42.5031 26.6354C42.4252 26.602 42.3361 26.5908 42.247 26.5908H39.4739C39.3848 26.5908 39.2957 26.602 39.2177 26.6354C39.1398 26.6688 39.0618 26.7133 39.0061 26.7802C38.9393 26.847 38.8948 26.9138 38.8614 26.9918C38.828 27.0697 38.8168 27.1588 38.8168 27.2479V28.1834C38.8168 28.3616 38.8836 28.5287 39.0061 28.6512C39.1287 28.7737 39.2957 28.8405 39.4739 28.8405H42.247C42.3138 28.8405 42.3806 28.8628 42.4252 28.9184C42.4697 28.963 42.5031 29.0298 42.5031 29.0966V30.0321C42.5031 30.0989 42.4697 30.1658 42.4252 30.2103C42.3806 30.2549 42.3138 30.2883 42.247 30.2883H39.4739C39.4071 30.2883 39.3403 30.2549 39.2957 30.2103C39.2512 30.1658 39.2177 30.0989 39.2177 30.0321V29.8985L38.828 29.9096Z" fill="white"/>
<path d="M42.2577 30.7449H39.4846C39.3955 30.7449 39.2953 30.7226 39.2174 30.6892C39.1283 30.6558 39.0503 30.6001 38.9835 30.5333C38.9167 30.4665 38.861 30.3885 38.8276 30.2994C38.7942 30.2103 38.7719 30.1212 38.7719 30.0321V29.8539H39.273V30.0321C39.273 30.0878 39.2953 30.1435 39.3399 30.1769C39.3844 30.2214 39.429 30.2437 39.4846 30.2437H42.2577C42.3134 30.2437 42.3691 30.2214 42.4025 30.1769C42.447 30.1324 42.4693 30.0878 42.4693 30.0321V29.0966C42.4693 29.0409 42.447 28.9853 42.4025 28.9518C42.3579 28.9184 42.3134 28.8962 42.2577 28.8962H39.4735C39.2842 28.8962 39.106 28.8182 38.9723 28.6846C38.8387 28.5509 38.7607 28.3727 38.7607 28.1834V27.2479C38.7607 27.1588 38.783 27.0586 38.8164 26.9806C38.8498 26.8915 38.9055 26.8136 38.9723 26.7468C39.0392 26.6799 39.1171 26.6243 39.2062 26.5908C39.2953 26.5574 39.3844 26.5352 39.4735 26.5352H42.2466C42.3357 26.5352 42.4359 26.5463 42.5139 26.5908C42.5918 26.6354 42.6809 26.6799 42.7477 26.7468C42.8146 26.8136 42.8702 26.8915 42.9037 26.9806C42.9371 27.0697 42.9593 27.1588 42.9593 27.2479V27.4261H42.4582V27.2479C42.4582 27.1922 42.4359 27.1365 42.3914 27.1031C42.3468 27.0586 42.3023 27.0363 42.2466 27.0363H39.4735C39.4178 27.0363 39.3621 27.0586 39.3287 27.1031C39.2842 27.1477 39.2619 27.1922 39.2619 27.2479V28.1834C39.2619 28.2391 39.2842 28.2948 39.3287 28.3282C39.3733 28.3616 39.4178 28.3839 39.4735 28.3839H42.2466C42.4359 28.3839 42.6141 28.4618 42.7477 28.5955C42.8814 28.7291 42.9593 28.9073 42.9593 29.0966V30.0321C42.9593 30.1212 42.9482 30.2215 42.9037 30.2994C42.8702 30.3885 42.8146 30.4665 42.7477 30.5333C42.6809 30.6001 42.603 30.6558 42.5139 30.6892C42.447 30.7337 42.3579 30.7449 42.2577 30.7449ZM38.8053 29.8873V30.0321C38.8053 30.1212 38.8164 30.2103 38.8498 30.2883C38.8832 30.3662 38.9389 30.4442 38.9946 30.511C39.0614 30.5778 39.1283 30.6224 39.2174 30.6558C39.2953 30.6892 39.3844 30.7115 39.4735 30.7003H42.2466C42.3357 30.7003 42.4248 30.6892 42.5027 30.6558C42.5807 30.6224 42.6586 30.5667 42.7255 30.511C42.7923 30.4553 42.8368 30.3774 42.8702 30.2883C42.9037 30.2103 42.9259 30.1212 42.9148 30.0321V29.0966C42.9148 28.9184 42.848 28.7402 42.7143 28.6177C42.5918 28.4952 42.4136 28.4173 42.2354 28.4173H39.4624C39.3955 28.4173 39.3399 28.395 39.2953 28.3505C39.2508 28.3059 39.2285 28.2502 39.2285 28.1834V27.2479C39.2285 27.1811 39.2508 27.1254 39.2953 27.0809C39.3399 27.0363 39.3955 27.014 39.4624 27.014H42.2354C42.3023 27.014 42.3579 27.0363 42.4025 27.0809C42.447 27.1254 42.4693 27.1922 42.4693 27.2479V27.3927H42.9037V27.2479C42.9037 27.1588 42.8925 27.0697 42.8591 26.9918C42.8257 26.9138 42.77 26.8358 42.7143 26.769C42.6586 26.7022 42.5807 26.6577 42.4916 26.6242C42.4136 26.5908 42.3245 26.5686 42.2354 26.5797H39.4624C39.3733 26.5797 39.2842 26.5908 39.2062 26.6242C39.1283 26.6577 39.0503 26.7133 38.9835 26.769C38.9167 26.8358 38.8721 26.9027 38.8387 26.9918C38.8053 27.0697 38.783 27.1588 38.7942 27.2479V28.1834C38.7942 28.3616 38.861 28.5398 38.9946 28.6623C39.1171 28.7848 39.2953 28.8628 39.4735 28.8628H42.2466C42.3134 28.8628 42.3691 28.885 42.4136 28.9296C42.4582 28.9741 42.4805 29.0298 42.4916 29.0966V30.0321C42.4916 30.0989 42.4693 30.1546 42.4248 30.1992C42.3802 30.2437 42.3134 30.266 42.2577 30.266H39.4846C39.4178 30.266 39.3621 30.2437 39.3176 30.1992C39.273 30.1546 39.2508 30.0878 39.2508 30.0321V29.8873H38.8053Z" fill="white"/>
<path d="M42.2579 30.7799H39.4848C39.3846 30.7799 39.2844 30.7687 39.1953 30.7242C39.1062 30.6908 39.0171 30.6351 38.9503 30.5683C38.8835 30.5015 38.8278 30.4124 38.7944 30.3233C38.761 30.2342 38.7387 30.1339 38.7387 30.0337V29.8332H39.2955V30.0337C39.2955 30.0783 39.3178 30.1228 39.3512 30.1562C39.3846 30.1896 39.4292 30.2119 39.4737 30.2119H42.2468C42.2913 30.2119 42.3359 30.1896 42.3693 30.1562C42.4027 30.1228 42.425 30.0783 42.425 30.0337V29.0982C42.425 29.0537 42.4027 29.0091 42.3693 28.9757C42.3359 28.9423 42.2913 28.92 42.2468 28.92H39.4737C39.2732 28.92 39.0839 28.8421 38.9503 28.6973C38.8055 28.5525 38.7275 28.3743 38.7275 28.1738V27.2384C38.7275 27.1381 38.7498 27.049 38.7832 26.9488C38.8166 26.8597 38.8723 26.7817 38.9391 26.7038C39.006 26.637 39.0951 26.5813 39.1842 26.5479C39.2732 26.5145 39.3735 26.4922 39.4737 26.4922H42.2468C42.347 26.4922 42.4361 26.5033 42.5363 26.5479C42.6254 26.5813 42.7145 26.637 42.7814 26.7038C42.8482 26.7706 42.9039 26.8597 42.9373 26.9488C42.9707 27.0379 42.993 27.1381 42.993 27.2384V27.45H42.4361V27.2384C42.4361 27.1938 42.4138 27.1493 42.3804 27.1158C42.347 27.0824 42.3025 27.0602 42.2579 27.0602H39.4737C39.4292 27.0602 39.3846 27.0824 39.3512 27.1158C39.3178 27.1493 39.2955 27.1938 39.2955 27.2384V28.1738C39.2955 28.2184 39.3178 28.2629 39.3512 28.2964C39.3846 28.3298 39.4292 28.352 39.4737 28.352H42.2468C42.4472 28.352 42.6366 28.43 42.7702 28.5748C42.915 28.7196 42.993 28.9089 42.993 29.0982V30.0337C42.993 30.1339 42.9707 30.223 42.9373 30.3233C42.9039 30.4124 42.8482 30.4903 42.7814 30.5683C42.7145 30.6351 42.6254 30.6908 42.5363 30.7242C42.4584 30.7576 42.3582 30.7799 42.2579 30.7799ZM38.8389 29.9223V30.0448C38.8389 30.1339 38.85 30.2119 38.8835 30.2899C38.9169 30.3678 38.9614 30.4458 39.0282 30.5015C39.0839 30.5571 39.1619 30.6128 39.2398 30.6462C39.3178 30.6796 39.4069 30.6908 39.4848 30.6908H42.2579C42.347 30.6908 42.425 30.6796 42.5029 30.6462C42.5809 30.6128 42.6588 30.5683 42.7145 30.5015C42.7702 30.4458 42.8259 30.3678 42.8593 30.2899C42.8927 30.2119 42.9039 30.1228 42.9039 30.0448V29.1093C42.9039 28.9423 42.837 28.7752 42.7145 28.6527C42.592 28.5302 42.425 28.4634 42.2579 28.4634H39.4848C39.418 28.4634 39.3512 28.43 39.2955 28.3855C39.2398 28.3409 39.2176 28.2741 39.2176 28.1961V27.2606C39.2176 27.1938 39.251 27.127 39.2955 27.0713C39.3512 27.0156 39.418 26.9933 39.4848 26.9933H42.2579C42.3247 26.9933 42.3916 27.0268 42.4472 27.0713C42.5029 27.127 42.5252 27.1938 42.5252 27.2606V27.3831H42.9039V27.2606C42.9039 27.1715 42.8927 27.0936 42.8593 27.0156C42.8259 26.9377 42.7814 26.8597 42.7145 26.804C42.6588 26.7483 42.5809 26.6927 42.5029 26.6592C42.425 26.6258 42.3359 26.6147 42.2579 26.6147H39.4848C39.3957 26.6147 39.3178 26.6258 39.2398 26.6592C39.1619 26.6927 39.0839 26.7372 39.0282 26.804C38.9726 26.8597 38.9169 26.9377 38.8835 27.0156C38.85 27.0936 38.8389 27.1827 38.8389 27.2606V28.1961C38.8389 28.3632 38.9057 28.5302 39.0282 28.6527C39.1507 28.7752 39.3178 28.8421 39.4848 28.8421H42.2579C42.3247 28.8421 42.3916 28.8755 42.4472 28.92C42.5029 28.9646 42.5252 29.0314 42.5252 29.1093V30.0448C42.5252 30.1117 42.4918 30.1896 42.4472 30.2342C42.3916 30.2899 42.3247 30.3121 42.2579 30.3121H39.4848C39.418 30.3121 39.3401 30.2787 39.2955 30.2342C39.2398 30.1785 39.2176 30.1117 39.2176 30.0448V29.9223H38.8389Z" fill="white"/>
<path d="M48.26 27.0342H44.9301V28.4151H47.614V28.894H44.9301V30.275H48.26V30.7427H44.4512V26.5664H48.2488L48.26 27.0342Z" fill="white"/>
<path d="M48.2825 30.7677H44.418V26.5469H48.2825V27.0814H44.9525V28.3956H47.6365V28.9302H44.9525V30.2443H48.2825V30.7677ZM44.4848 30.7009H48.2268V30.2889H44.8969V28.8522H47.5808V28.4401H44.8969V27.0035H48.2268V26.6026H44.4848V30.7009Z" fill="white"/>
<path d="M48.2826 30.7455H44.4404V26.5469H48.2826V27.048H44.9416V28.3956H47.6256V28.8967H44.9416V30.2443H48.2826V30.7455ZM44.4738 30.7232H48.2492V30.2777H44.9082V28.8745H47.5922V28.429H44.9082V27.0146H48.2381V26.5803H44.4627L44.4738 30.7232Z" fill="white"/>
<path d="M48.3051 30.7777H44.4072V26.5234H48.3051V27.0803H44.9641V28.3722H47.648V28.9401H44.9641V30.232H48.3051V30.7777ZM44.4963 30.6886H48.2049V30.31H44.875V28.8399H47.559V28.4501H44.875V26.9801H48.2049V26.6014H44.4963V30.6886Z" fill="white"/>
<path d="M50.4434 27.0375C50.3877 27.0375 50.332 27.0598 50.2875 27.1043C50.2429 27.1488 50.2207 27.2045 50.2207 27.2602V30.0333C50.2207 30.089 50.2429 30.1447 50.2875 30.1892C50.332 30.2338 50.3877 30.256 50.4434 30.256H53.907V30.7238H50.4434C50.3543 30.7238 50.2652 30.7015 50.1761 30.6681C50.087 30.6347 50.0202 30.579 49.9534 30.5122C49.8866 30.4454 49.842 30.3674 49.8086 30.2894C49.7752 30.2003 49.7529 30.1113 49.7529 30.0222V27.2491C49.7529 27.16 49.7752 27.0709 49.8086 26.9818C49.842 26.8927 49.8977 26.8259 49.9534 26.7591C50.0202 26.6922 50.0982 26.6477 50.1761 26.6143C50.2652 26.5809 50.3543 26.5586 50.4434 26.5586H53.907V27.0263H50.4434V27.0375Z" fill="white"/>
<path d="M53.9295 30.7677H50.4436C50.3434 30.7677 50.2543 30.7455 50.1652 30.7121C50.0761 30.6787 49.9981 30.623 49.9313 30.5561C49.8645 30.4893 49.8088 30.4114 49.7754 30.3223C49.742 30.2332 49.7197 30.1441 49.7197 30.0439V27.2708C49.7197 27.1705 49.742 27.0814 49.7754 26.9923C49.8088 26.9033 49.8645 26.8253 49.9313 26.7585C49.9981 26.6917 50.0761 26.636 50.1652 26.6026C50.2543 26.5691 50.3434 26.5469 50.4436 26.5469H53.9295V27.0814H50.4436C50.3879 27.0814 50.3434 27.1037 50.31 27.1371C50.2766 27.1705 50.2543 27.2262 50.2543 27.2708V30.0439C50.2543 30.0995 50.2766 30.1441 50.31 30.1775C50.3434 30.2109 50.3991 30.2332 50.4436 30.2332H53.9295V30.7677ZM50.4436 26.6026C50.3545 26.6026 50.2654 26.6137 50.1875 26.6471C50.1095 26.6805 50.0316 26.7251 49.9759 26.7919C49.9091 26.8587 49.8645 26.9255 49.8311 27.0035C49.7977 27.0814 49.7865 27.1705 49.7865 27.2596V30.0327C49.7865 30.1218 49.7977 30.2109 49.8311 30.2889C49.8645 30.3668 49.9091 30.4448 49.9759 30.5005C50.0427 30.5673 50.1095 30.6118 50.1875 30.6452C50.2654 30.6786 50.3545 30.6898 50.4436 30.6898H53.8738V30.2777H50.4436C50.3768 30.2777 50.31 30.2443 50.2654 30.1998C50.2209 30.1552 50.1875 30.0884 50.1875 30.0216V27.2485C50.1875 27.1817 50.2209 27.1149 50.2654 27.0703C50.31 27.0258 50.3768 26.9923 50.4436 26.9923H53.8738V26.6026H50.4436Z" fill="white"/>
<path d="M53.9179 30.7455H50.4432C50.3541 30.7455 50.2539 30.7232 50.1759 30.6898C50.0868 30.6564 50.0089 30.6007 49.9421 30.5339C49.8753 30.467 49.8196 30.3891 49.7862 30.3C49.7527 30.2109 49.7305 30.1218 49.7305 30.0327V27.2596C49.7305 27.1705 49.7527 27.0703 49.7862 26.9923C49.8196 26.9033 49.8753 26.8253 49.9421 26.7585C50.0089 26.6917 50.0868 26.636 50.1759 26.6026C50.265 26.5691 50.3541 26.5469 50.4432 26.5469H53.9179V27.048H50.4432C50.3875 27.048 50.3319 27.0703 50.2985 27.1149C50.2539 27.1594 50.2316 27.204 50.2316 27.2596V30.0327C50.2316 30.0884 50.2539 30.1441 50.2985 30.1775C50.343 30.222 50.3875 30.2443 50.4432 30.2443H53.9179V30.7455ZM50.4432 26.5803C50.3541 26.5803 50.265 26.5914 50.1871 26.6248C50.1091 26.6582 50.0312 26.7139 49.9643 26.7696C49.8975 26.8364 49.853 26.9033 49.8196 26.9923C49.7862 27.0703 49.7639 27.1594 49.775 27.2485V30.0216C49.775 30.1107 49.7862 30.1998 49.8196 30.2777C49.853 30.3557 49.9087 30.4336 49.9643 30.5005C50.02 30.5673 50.098 30.6118 50.1871 30.6452C50.265 30.6786 50.3541 30.7009 50.4432 30.6898H53.8845V30.2777H50.4432C50.3764 30.2777 50.3207 30.2555 50.2762 30.2109C50.2316 30.1664 50.2094 30.0995 50.2094 30.0438V27.2708C50.2094 27.2039 50.2316 27.1483 50.2762 27.1037C50.3207 27.0592 50.3764 27.0369 50.4432 27.0369H53.8845V26.6026H50.4432V26.5803Z" fill="white"/>
<path d="M53.9408 30.781H50.4327C50.3325 30.781 50.2434 30.7699 50.1431 30.7254C50.054 30.6919 49.9649 30.6363 49.8981 30.5694C49.8313 30.5026 49.7756 30.4135 49.7422 30.3244C49.7088 30.2353 49.6865 30.1351 49.6865 30.0349V27.2618C49.6865 27.1616 49.7088 27.0725 49.7422 26.9722C49.7756 26.8831 49.8313 26.8052 49.8981 26.7272C49.9649 26.6604 50.054 26.6047 50.1431 26.5713C50.2322 26.5379 50.3325 26.5156 50.4327 26.5156H53.9408V27.0725H50.4327C50.3881 27.0725 50.3436 27.0947 50.3102 27.1282C50.2768 27.1616 50.2545 27.2061 50.2545 27.2507V30.0237C50.2545 30.0683 50.2768 30.1128 50.3102 30.1462C50.3436 30.1796 50.3881 30.2019 50.4327 30.2019H53.9408V30.781ZM50.4438 26.6159C50.3547 26.6159 50.2768 26.627 50.1988 26.6604C50.1209 26.6938 50.0429 26.7384 49.9872 26.8052C49.9315 26.872 49.8758 26.9388 49.8424 27.0168C49.809 27.0947 49.7979 27.1838 49.7979 27.2618V30.0349C49.7979 30.124 49.809 30.2019 49.8424 30.2799C49.8758 30.3578 49.9204 30.4358 49.9872 30.4915C50.0429 30.5472 50.1209 30.6029 50.1988 30.6363C50.2768 30.6697 50.3659 30.6808 50.4438 30.6808H53.8628V30.3022H50.4438C50.377 30.3022 50.299 30.2687 50.2545 30.2242C50.1988 30.1685 50.1765 30.1017 50.1765 30.0349V27.2618C50.1765 27.195 50.21 27.1282 50.2545 27.0725C50.3102 27.0168 50.377 26.9945 50.4438 26.9945H53.8628V26.6159H50.4438Z" fill="white"/>
<path d="M59.0523 26.5664H59.5201V30.0411C59.5201 30.1302 59.4978 30.2193 59.4644 30.3084C59.431 30.3975 59.3753 30.4754 59.3085 30.5311C59.2416 30.5979 59.1637 30.6425 59.0857 30.687C58.9966 30.7205 58.9075 30.7427 58.8184 30.7427H56.0454C55.9563 30.7427 55.8672 30.7205 55.7781 30.687C55.689 30.6536 55.611 30.5979 55.5553 30.5311C55.4885 30.4643 55.444 30.3863 55.3994 30.3084C55.366 30.2193 55.3438 30.1302 55.3438 30.0411V26.5664H55.8115V30.0411C55.8115 30.0968 55.8338 30.1525 55.8783 30.197C55.9229 30.2416 55.9786 30.2638 56.0342 30.2638H58.8073C58.863 30.2638 58.9187 30.2416 58.9632 30.197C59.0078 30.1525 59.03 30.0968 59.03 30.0411V26.5664H59.0523Z" fill="white"/>
<path d="M58.83 30.7677H56.0569C55.9567 30.7677 55.8676 30.7566 55.7785 30.7121C55.6894 30.6787 55.6114 30.623 55.5446 30.5561C55.4778 30.4893 55.4221 30.4114 55.3887 30.3223C55.3553 30.2332 55.333 30.1441 55.333 30.0439V26.5469H55.8676V30.055C55.8676 30.1107 55.8899 30.1552 55.9233 30.1886C55.9567 30.222 56.0124 30.2443 56.0569 30.2443H58.83C58.8857 30.2443 58.9302 30.222 58.9636 30.1886C58.997 30.1552 59.0193 30.0995 59.0193 30.055V26.5469H59.5539V30.055C59.5539 30.1552 59.5316 30.2443 59.4982 30.3334C59.4648 30.4225 59.4091 30.5005 59.3423 30.5673C59.2755 30.6341 59.1975 30.6898 59.1084 30.7232C59.0193 30.7455 58.9302 30.7677 58.83 30.7677ZM55.3887 26.6026V30.0439C55.3887 30.1329 55.3998 30.222 55.4332 30.3C55.4667 30.378 55.5112 30.4559 55.578 30.5116C55.6448 30.5784 55.7117 30.623 55.7896 30.6564C55.8676 30.6898 55.9567 30.7009 56.0458 30.7009H58.8188C58.9079 30.7009 58.997 30.6898 59.075 30.6564C59.153 30.623 59.2309 30.5784 59.2866 30.5116C59.3534 30.4448 59.398 30.378 59.4314 30.3C59.4648 30.222 59.4759 30.1329 59.4759 30.0439V26.6026H59.0639V30.0439C59.0639 30.1107 59.0304 30.1775 58.9859 30.222C58.9414 30.2666 58.8745 30.3 58.8077 30.3H56.0346C55.9678 30.3 55.901 30.2666 55.8564 30.222C55.8119 30.1775 55.7785 30.1107 55.7785 30.0439V26.6026H55.3887Z" fill="white"/>
<path d="M58.8296 30.7455H56.0565C55.9674 30.7455 55.8672 30.7232 55.7892 30.6898C55.7001 30.6564 55.6222 30.6007 55.5553 30.5339C55.4885 30.467 55.4328 30.3891 55.3994 30.3C55.366 30.2109 55.3438 30.1218 55.3438 30.0327V26.5469H55.8449V30.0327C55.8449 30.0884 55.8672 30.1441 55.9117 30.1775C55.9563 30.222 56.0008 30.2443 56.0565 30.2443H58.8296C58.8853 30.2443 58.941 30.222 58.9744 30.1775C59.0189 30.1329 59.0412 30.0884 59.0412 30.0327V26.5469H59.5312V30.0327C59.5312 30.1218 59.5201 30.222 59.4755 30.3C59.4421 30.3891 59.3864 30.467 59.3196 30.5339C59.2528 30.6007 59.1748 30.6564 59.0857 30.6898C59.0189 30.7343 58.9187 30.7455 58.8296 30.7455ZM55.3772 26.5803V30.0327C55.3772 30.1218 55.3883 30.2109 55.4217 30.2889C55.4551 30.3668 55.5108 30.4448 55.5665 30.5116C55.6333 30.5784 55.7001 30.623 55.7892 30.6564C55.8672 30.6898 55.9563 30.7121 56.0454 30.7009H58.8185C58.9075 30.7009 58.9966 30.6898 59.0746 30.6564C59.1526 30.623 59.2305 30.5673 59.2973 30.5116C59.3642 30.4448 59.4087 30.378 59.4421 30.2889C59.4755 30.2109 59.4978 30.1218 59.4867 30.0327V26.5803H59.0523V30.0327C59.0523 30.0995 59.0301 30.1552 58.9855 30.1998C58.941 30.2443 58.8741 30.2666 58.8185 30.2666H56.0454C55.9785 30.2666 55.9229 30.2443 55.8783 30.1998C55.8338 30.1552 55.8115 30.0884 55.8115 30.0327V26.5803H55.3772Z" fill="white"/>
<path d="M58.8298 30.781H56.0567C55.9565 30.781 55.8674 30.7699 55.7672 30.7254C55.6781 30.6919 55.589 30.6363 55.5221 30.5694C55.4553 30.5026 55.3996 30.4135 55.3662 30.3244C55.3328 30.2353 55.3105 30.1351 55.3105 30.0349V26.5156H55.8674V30.0349C55.8674 30.0794 55.8897 30.124 55.9231 30.1574C55.9565 30.1908 56.001 30.2131 56.0456 30.2131H58.8187C58.8632 30.2131 58.9077 30.1908 58.9412 30.1574C58.9746 30.124 58.9968 30.0794 58.9968 30.0349V26.5156H59.5537V30.0349C59.5537 30.1351 59.5314 30.2242 59.498 30.3133C59.4646 30.4024 59.4089 30.4803 59.3421 30.5583C59.2753 30.6251 59.1973 30.6808 59.0971 30.7142C59.0191 30.7588 58.93 30.781 58.8298 30.781ZM55.3996 26.6159V30.046C55.3996 30.1351 55.4108 30.2131 55.4442 30.291C55.4776 30.369 55.5221 30.4469 55.589 30.5026C55.6447 30.5583 55.7226 30.614 55.8006 30.6474C55.8785 30.6808 55.9676 30.6919 56.0456 30.6919H58.8187C58.9078 30.6919 58.9857 30.6808 59.0637 30.6474C59.1416 30.614 59.2196 30.5694 59.2753 30.5026C59.3309 30.4469 59.3866 30.369 59.42 30.291C59.4535 30.2131 59.4646 30.124 59.4646 30.046V26.6159H59.0859V30.046C59.0859 30.1128 59.0525 30.1908 59.008 30.2353C58.9523 30.291 58.8855 30.3133 58.8187 30.3133H56.0456C55.9788 30.3133 55.9008 30.2799 55.8562 30.2353C55.8006 30.1796 55.7783 30.1128 55.7783 30.046V26.6159H55.3996Z" fill="white"/>
<path d="M65.1882 28.4819C65.1882 28.571 65.166 28.6601 65.1325 28.7492C65.0991 28.8383 65.0434 28.9051 64.9878 28.972C64.9209 29.0388 64.843 29.0833 64.765 29.1279C64.6759 29.1613 64.5868 29.1836 64.4977 29.1836H63.8629L65.1771 30.7316H64.5534L63.2504 29.1836H61.7247C61.6467 29.1836 61.5688 29.1724 61.5019 29.1613V30.7316H61.0342V26.5664H64.5089C64.598 26.5664 64.6871 26.5887 64.7762 26.6221C64.8653 26.6555 64.9321 26.7112 64.9989 26.778C65.0657 26.8448 65.1103 26.9228 65.1437 27.0007C65.1771 27.0898 65.1994 27.1789 65.1994 27.268L65.1882 28.4819ZM64.4977 28.7047C64.5312 28.7047 64.5534 28.6935 64.5868 28.6824C64.6091 28.6713 64.6425 28.6601 64.6537 28.6379C64.6759 28.6156 64.6871 28.5933 64.6982 28.571C64.7093 28.5488 64.7205 28.5154 64.7205 28.4819V27.2569C64.7205 27.2012 64.6982 27.1455 64.6537 27.101C64.6091 27.0564 64.5534 27.0342 64.4977 27.0342H61.7247C61.669 27.0342 61.6133 27.0564 61.5687 27.101C61.5242 27.1455 61.5019 27.2012 61.5019 27.2569V28.4819C61.5019 28.5376 61.5242 28.5933 61.5687 28.6379C61.6133 28.6824 61.669 28.7047 61.7247 28.7047H64.4977Z" fill="white"/>
<path d="M65.2328 30.7672H64.5312L63.2282 29.208H61.7136C61.6467 29.208 61.5799 29.1969 61.5131 29.1857V30.756H60.9785V26.5352H64.4866C64.676 26.5352 64.8653 26.6131 64.9989 26.7468C65.1326 26.8804 65.2105 27.0697 65.2105 27.2591V28.4841C65.2105 28.6734 65.1326 28.8628 64.9989 28.9964C64.8653 29.13 64.676 29.208 64.4866 29.208H63.9075L65.2328 30.7672ZM64.5646 30.7003H65.1103L63.7961 29.1523H64.4978C64.676 29.1523 64.843 29.0855 64.9655 28.9518C65.088 28.8293 65.1548 28.6623 65.166 28.4841V27.2591C65.166 27.0809 65.0992 26.9138 64.9766 26.7913C64.8541 26.6688 64.6871 26.602 64.5089 26.602H61.0676V30.7003H61.4797V29.1189L61.5465 29.13C61.6133 29.1412 61.669 29.1523 61.7358 29.1523H63.2727L64.5646 30.7003ZM64.4978 28.7403H61.7247C61.6579 28.7403 61.591 28.718 61.5465 28.6623C61.502 28.6177 61.4685 28.5509 61.4685 28.4841V27.2591C61.4685 27.1922 61.502 27.1254 61.5465 27.0809C61.591 27.0363 61.6579 27.0029 61.7247 27.0029H64.4978C64.5646 27.0029 64.6314 27.0363 64.676 27.0809C64.7205 27.1254 64.7539 27.1922 64.7539 27.2591V28.4841C64.7539 28.5509 64.7316 28.6177 64.676 28.6623C64.6314 28.7068 64.5646 28.7403 64.4978 28.7403ZM61.7136 27.0697C61.6579 27.0697 61.6133 27.092 61.5799 27.1254C61.5465 27.1588 61.5242 27.2145 61.5242 27.2591V28.4841C61.5242 28.5398 61.5465 28.5843 61.5799 28.6177C61.6133 28.6512 61.669 28.6734 61.7136 28.6734H64.4866C64.5423 28.6734 64.5869 28.6512 64.6203 28.6177C64.6537 28.5843 64.676 28.5287 64.676 28.4841V27.2591C64.676 27.2034 64.6537 27.1588 64.6203 27.1254C64.5869 27.092 64.5312 27.0697 64.4866 27.0697H61.7136Z" fill="white"/>
<path d="M65.1992 30.7461H64.5421L63.2391 29.198H61.7245C61.6577 29.198 61.5908 29.1869 61.524 29.1758H61.5129V30.7461H61.0117V26.5586H64.4976C64.6869 26.5586 64.8651 26.6366 64.9987 26.7702C65.1324 26.9038 65.2103 27.082 65.2103 27.2714V28.4964C65.2103 28.6857 65.1324 28.8639 64.9987 28.9976C64.8651 29.1312 64.6869 29.2092 64.4976 29.2092H63.8962L65.1992 30.7461ZM64.5532 30.7238H65.1324L63.8293 29.1646H64.4976C64.6757 29.1646 64.8539 29.0978 64.9764 28.9642C65.0989 28.8417 65.1769 28.6635 65.1769 28.4853V27.2602C65.1769 27.082 65.1101 26.9038 64.9764 26.7813C64.8539 26.6588 64.6757 26.5809 64.4976 26.5809H61.0451V30.7238H61.4795V29.1535H61.524C61.5908 29.1646 61.6577 29.1758 61.7133 29.1758H63.2502L64.5532 30.7238ZM64.4976 28.7191H61.7245C61.6577 28.7191 61.602 28.6969 61.5574 28.6523C61.5129 28.6078 61.4906 28.5521 61.4906 28.4853V27.2602C61.4906 27.1934 61.5129 27.1377 61.5574 27.0932C61.602 27.0486 61.6577 27.0263 61.7245 27.0263H64.4976C64.5644 27.0263 64.6201 27.0486 64.6646 27.1043C64.7092 27.1488 64.7314 27.2045 64.7314 27.2714V28.4964C64.7314 28.5298 64.7203 28.5632 64.7092 28.5855C64.698 28.6189 64.6757 28.6412 64.6535 28.6635C64.6312 28.6857 64.6089 28.708 64.5755 28.7191C64.5532 28.7191 64.531 28.7191 64.4976 28.7191ZM61.7133 27.0598C61.6577 27.0598 61.602 27.082 61.5686 27.1266C61.524 27.1711 61.5017 27.2157 61.5017 27.2714V28.4964C61.5017 28.5521 61.524 28.6078 61.5686 28.6412C61.6131 28.6746 61.6577 28.6969 61.7133 28.6969H64.4864C64.5421 28.6969 64.5978 28.6746 64.6312 28.6412C64.6646 28.6078 64.6869 28.5521 64.6869 28.4964V27.2714C64.6869 27.2157 64.6646 27.16 64.6312 27.1266C64.5978 27.082 64.5421 27.0598 64.4864 27.0598H61.7133Z" fill="white"/>
<path d="M65.2662 30.7783H64.5312L63.2282 29.2303H61.7136C61.6579 29.2303 61.591 29.2191 61.5354 29.2191V30.7894H60.9785V26.5352H64.4978C64.6982 26.5352 64.8876 26.6131 65.0212 26.7579C65.166 26.9027 65.2439 27.092 65.2439 27.2813V28.5064C65.2439 28.7068 65.166 28.885 65.0212 29.0298C64.8764 29.1635 64.6982 29.2414 64.4978 29.2414H63.9521L65.2662 30.7783ZM64.5646 30.6892H65.0657L63.7627 29.1412H64.4978C64.6648 29.1412 64.8319 29.0744 64.9544 28.9518C65.0769 28.8293 65.1437 28.6623 65.1437 28.4952V27.2702C65.1437 27.1031 65.0769 26.9361 64.9544 26.8136C64.8319 26.6911 64.6648 26.6242 64.4978 26.6242H61.0676V30.7003H61.4463V29.1189L61.5242 29.13C61.591 29.1412 61.6467 29.1412 61.7136 29.1523H63.2616L63.2727 29.1635L64.5646 30.6892ZM64.4978 28.7514H61.7247C61.6579 28.7514 61.591 28.718 61.5354 28.6734C61.4797 28.6289 61.4574 28.5621 61.4574 28.4841V27.2591C61.4574 27.1922 61.4908 27.1254 61.5354 27.0697C61.591 27.014 61.6579 26.9918 61.7247 26.9918H64.4978C64.5646 26.9918 64.6314 27.0252 64.6871 27.0697C64.7316 27.1254 64.765 27.1922 64.765 27.2591V28.4841C64.765 28.5509 64.7316 28.6177 64.6871 28.6734C64.6314 28.7291 64.5646 28.7514 64.4978 28.7514ZM61.7136 27.0809C61.669 27.0809 61.6245 27.1031 61.591 27.1365C61.5576 27.17 61.5354 27.2145 61.5354 27.2591V28.4841C61.5354 28.5287 61.5576 28.5732 61.591 28.6066C61.6245 28.64 61.669 28.6623 61.7136 28.6623H64.4866C64.5312 28.6623 64.5757 28.64 64.6091 28.6066C64.6425 28.5732 64.6648 28.5287 64.6648 28.4841V27.2591C64.6648 27.2145 64.6425 27.17 64.6091 27.1365C64.5757 27.1031 64.5312 27.0809 64.4866 27.0809H61.7136Z" fill="white"/>
<path d="M66.6807 26.5664H67.1484V30.7316H66.6807V26.5664Z" fill="white"/>
<path d="M67.182 30.7677H66.6475V26.5469H67.182V30.7677ZM66.7031 30.7009H67.1152V26.6026H66.7031V30.7009Z" fill="white"/>
<path d="M67.1603 30.7455H66.6592V26.5469H67.1603V30.7455ZM66.6926 30.7232H67.1269V26.5914H66.6926V30.7232Z" fill="white"/>
<path d="M67.1936 30.7777H66.6367V26.5234H67.1936V30.7777ZM66.7258 30.6886H67.1045V26.6125H66.7258V30.6886Z" fill="white"/>
<path d="M72.7726 26.5664V27.0342H70.9239V30.7316H70.4561V27.0342H68.6074V26.5664H72.7726Z" fill="white"/>
<path d="M70.9575 30.7672H70.4229V27.0697H68.5742V26.5352H72.8062V27.0697H70.9575V30.7672ZM70.4898 30.7003H70.9018V27.0029H72.7505V26.602H68.641V27.014H70.4898V30.7003Z" fill="white"/>
<path d="M70.9466 30.7455H70.4454V27.048H68.5967V26.5469H72.7953V27.048H70.9466V30.7455ZM70.4788 30.7232H70.9131V27.0258H72.7619V26.5914H68.6301V27.0258H70.4788V30.7232Z" fill="white"/>
<path d="M70.969 30.7777H70.4122V27.0803H68.5635V26.5234H72.8177V27.0803H70.969V30.7777ZM70.5013 30.6886H70.8799V26.9912H72.7287V26.6125H68.6526V26.9912H70.5013V30.6886Z" fill="white"/>
<path d="M78.1514 26.5664L76.2358 29.1613V30.7316H75.7681V29.1613C75.1444 28.3149 74.4873 27.4128 73.8525 26.5664H74.3871L76.002 28.6044C76.5031 27.9585 77.0934 27.2123 77.5945 26.5664H78.1514Z" fill="white"/>
<path d="M76.2585 30.7672H75.7239V29.1746C75.1114 28.3282 74.4543 27.4595 73.8307 26.602L73.7861 26.5352H74.3987L76.0024 28.5621C76.3922 28.0609 76.8265 27.5041 77.2497 26.9695L77.5838 26.5463H78.2075L78.1741 26.5908L76.2585 29.1746V30.7672ZM75.7908 30.7003H76.2028V29.1523V29.1412L78.085 26.5908H77.6061L77.2831 27.0029C76.8599 27.5486 76.4144 28.1054 76.0135 28.6177L75.9912 28.6512L74.3764 26.602H73.9086C74.5323 27.4484 75.1782 28.3171 75.7908 29.1523L75.8019 29.1635L75.7908 30.7003Z" fill="white"/>
<path d="M76.2476 30.7455H75.7464V29.164C75.1339 28.3176 74.4768 27.4378 73.842 26.5914L73.8086 26.5469H74.3877V26.558L75.9914 28.5738C76.3812 28.0615 76.8267 27.5158 77.2499 26.9701L77.584 26.5469H78.1742L78.152 26.5692L76.2476 29.164V30.7455ZM75.7798 30.7232H76.2142V29.164L78.1074 26.5914H77.5951L77.2722 27.0035C76.849 27.5492 76.4035 28.106 76.0026 28.6183L75.9914 28.6295L75.9803 28.6183L74.3654 26.5914H73.8643C74.4991 27.4378 75.145 28.3176 75.7575 29.164L75.7798 30.7232Z" fill="white"/>
<path d="M76.2806 30.7777H75.7238V29.1851C75.1335 28.3722 74.5098 27.5369 73.8305 26.6125L73.7637 26.5234H74.4096L74.4207 26.5346L76.0022 28.5281C76.3474 28.0715 76.7372 27.5814 77.1159 27.1137L77.5836 26.5234H78.2407L76.2806 29.174V30.7777ZM75.8129 30.6886H76.1915V29.1517V29.1406L78.0625 26.6125H77.617L77.2941 27.0135C76.8263 27.6037 76.4142 28.1383 76.0245 28.6283L75.991 28.6728L75.9576 28.6283L74.3539 26.6125H73.9307C74.521 27.4032 75.1781 28.3053 75.7906 29.1406V29.1517V29.1629L75.8129 30.6886Z" fill="white"/>
<path d="M82.0615 26.5586H82.5293V30.256H86.2267V30.7238H82.0615V26.5586Z" fill="white"/>
<path d="M86.2482 30.7672H82.0273V26.5352H82.5619V30.2437H86.2593L86.2482 30.7672ZM82.083 30.7003H86.1925V30.2883H82.4951V26.5908H82.083V30.7003Z" fill="white"/>
<path d="M86.2377 30.7455H82.0391V26.5469H82.5402V30.2554H86.2377V30.7455ZM82.0725 30.7232H86.2042V30.2777H82.5068V26.5692H82.0725V30.7232Z" fill="white"/>
<path d="M86.2709 30.781H82.0166V26.5156H82.5734V30.2242H86.2709V30.781ZM82.0946 30.6919H86.1706V30.3133H82.4732V26.6047H82.0946V30.6919Z" fill="white"/>
<path d="M91.2381 27.0342H87.9082V28.4151H90.5922V28.894H87.9082V30.275H91.2381V30.7427H87.4404V26.5664H91.2381V27.0342Z" fill="white"/>
<path d="M91.2707 30.7677H87.4062V26.5469H91.2707V27.0814H87.9408V28.3956H90.6248V28.9302H87.9408V30.2443H91.2707V30.7677ZM87.4619 30.7009H91.2039V30.2889H87.874V28.8522H90.558V28.4401H87.874V27.0035H91.2039V26.6026H87.4619V30.7009Z" fill="white"/>
<path d="M91.2598 30.7455H87.4287V26.5469H91.2598V27.048H87.9299V28.3956H90.6139V28.8967H87.9299V30.2443H91.2598V30.7455ZM87.451 30.7232H91.2264V30.2777H87.8965V28.8745H90.5804V28.429H87.8965V27.0146H91.2264V26.5803H87.451V30.7232Z" fill="white"/>
<path d="M91.2823 30.7777H87.3955V26.5234H91.2823V27.0803H87.9524V28.3722H90.6252V28.9401H87.9524V30.232H91.2823V30.7777ZM87.4846 30.6886H91.2043V30.31H87.8633V28.8399H90.5472V28.4501H87.8633V26.9801H91.1932V26.6014H87.4735L87.4846 30.6886Z" fill="white"/>
<path d="M96.2048 26.5664C96.2939 26.5664 96.383 26.5775 96.4721 26.6221C96.5612 26.6555 96.6391 26.7112 96.6948 26.7669C96.7616 26.8337 96.8062 26.9116 96.8507 26.9896C96.8841 27.0787 96.9064 27.1678 96.9064 27.2569V30.7316H96.4386V29.2058H93.2201V30.7316H92.7412V27.2569C92.7412 27.1678 92.7635 27.0787 92.7969 26.9896C92.8303 26.9005 92.886 26.8337 92.9528 26.7669C93.0196 26.7 93.0976 26.6555 93.1756 26.6221C93.2646 26.5887 93.3537 26.5664 93.4428 26.5664H96.2048ZM96.4386 28.7381V27.2458C96.4386 27.1901 96.4164 27.1344 96.3718 27.0898C96.3273 27.0453 96.2716 27.023 96.2159 27.023H93.4428C93.3871 27.023 93.3315 27.0453 93.2869 27.0898C93.2424 27.1344 93.2201 27.1901 93.2201 27.2458V28.7381H96.4386Z" fill="white"/>
<path d="M96.9293 30.7672H96.3947V29.2414H93.2318V30.7672H92.6973V27.2591C92.6973 27.1588 92.7195 27.0697 92.7529 26.9806C92.7864 26.8915 92.842 26.8136 92.9089 26.7468C92.9757 26.6799 93.0536 26.6243 93.1427 26.5908C93.2318 26.5574 93.3209 26.5352 93.4212 26.5352H96.1942C96.2945 26.5352 96.3836 26.5574 96.4727 26.5908C96.5618 26.6243 96.6397 26.6799 96.7065 26.7468C96.7734 26.8136 96.829 26.8915 96.8625 26.9806C96.8959 27.0697 96.9181 27.1588 96.9181 27.2591L96.9293 30.7672ZM96.4615 30.7003H96.8736V27.2591C96.8736 27.17 96.8625 27.0809 96.829 27.0029C96.7956 26.9249 96.7511 26.847 96.6843 26.7913C96.6174 26.7245 96.5506 26.6799 96.4727 26.6465C96.3947 26.6131 96.3056 26.602 96.2165 26.602H93.4434C93.3543 26.602 93.2652 26.6131 93.1873 26.6465C93.1093 26.6799 93.0314 26.7245 92.9757 26.7913C92.9089 26.8581 92.8643 26.9249 92.8309 27.0029C92.7975 27.0809 92.7864 27.17 92.7864 27.2591V30.7003H93.1984V29.1746H96.4838L96.4615 30.7003ZM96.4615 28.7737H93.1762V27.2591C93.1762 27.1922 93.2096 27.1254 93.2541 27.0809C93.2987 27.0363 93.3655 27.0029 93.4323 27.0029H96.2054C96.2722 27.0029 96.339 27.0363 96.3836 27.0809C96.4281 27.1254 96.4615 27.1922 96.4615 27.2591V28.7737ZM93.2318 28.718H96.4058V27.2702C96.4058 27.2145 96.3836 27.17 96.3502 27.1365C96.3167 27.1031 96.2611 27.0809 96.2165 27.0809H93.4434C93.3878 27.0809 93.3432 27.1031 93.3098 27.1365C93.2764 27.17 93.2541 27.2256 93.2541 27.2702L93.2318 28.718Z" fill="white"/>
<path d="M96.9173 30.7455H96.4162V29.2197H93.2199V30.7455H92.7188V27.2596C92.7188 27.1705 92.7299 27.0703 92.7744 26.9923C92.8078 26.9033 92.8635 26.8253 92.9304 26.7585C92.9972 26.6917 93.0751 26.636 93.1642 26.6026C93.2533 26.5691 93.3424 26.5469 93.4315 26.5469H96.2046C96.2937 26.5469 96.3939 26.558 96.483 26.6026C96.5721 26.636 96.6501 26.6917 96.7169 26.7585C96.7837 26.8253 96.8394 26.9033 96.8728 26.9923C96.9062 27.0814 96.9285 27.1705 96.9285 27.2708V30.7455H96.9173ZM96.4496 30.7232H96.8839V27.2708C96.8839 27.1817 96.8728 27.0926 96.8283 27.0146C96.7948 26.9367 96.7392 26.8587 96.6835 26.7919C96.6167 26.7251 96.5498 26.6805 96.4607 26.6471C96.3716 26.6137 96.2937 26.5914 96.2046 26.6026H93.4315C93.3424 26.6026 93.2533 26.6137 93.1754 26.6471C93.0974 26.6805 93.0194 26.7362 92.9526 26.7919C92.8858 26.8587 92.8413 26.9255 92.8078 27.0146C92.7744 27.0926 92.7522 27.1817 92.7522 27.2708V30.7232H93.1865V29.1974H96.4496V30.7232ZM96.4496 28.7631H93.1865V27.2708C93.1865 27.2039 93.2088 27.1483 93.2533 27.1037C93.2979 27.0592 93.3647 27.0369 93.4204 27.0369H96.1934C96.2603 27.0369 96.316 27.0592 96.3605 27.1037C96.4051 27.1483 96.4273 27.2151 96.4273 27.2708V28.7631H96.4496ZM93.2199 28.7297H96.4162V27.2596C96.4162 27.204 96.3939 27.1483 96.3494 27.1149C96.3048 27.0703 96.2603 27.048 96.2046 27.048H93.4315C93.3758 27.048 93.3201 27.0703 93.2867 27.1149C93.2422 27.1594 93.2199 27.204 93.2199 27.2596V28.7297Z" fill="white"/>
<path d="M96.9515 30.781H96.3947V29.2553H93.2541V30.781H92.6973V27.2618C92.6973 27.1616 92.7195 27.0725 92.7529 26.9722C92.7864 26.8831 92.842 26.8052 92.9089 26.7272C92.9757 26.6604 93.0648 26.6047 93.1539 26.5713C93.243 26.5379 93.3432 26.5156 93.4434 26.5156H96.2165C96.3167 26.5156 96.4058 26.5268 96.5061 26.5713C96.5952 26.6047 96.6843 26.6604 96.7511 26.7272C96.8179 26.794 96.8736 26.8831 96.907 26.9722C96.9404 27.0613 96.9627 27.1616 96.9627 27.2618L96.9515 30.781ZM96.4838 30.6919H96.8625V27.2618C96.8625 27.1727 96.8513 27.0947 96.8179 27.0168C96.7845 26.9388 96.7399 26.8609 96.6731 26.8052C96.6174 26.7495 96.5395 26.6938 96.4615 26.6604C96.3836 26.627 96.2945 26.6159 96.2165 26.6159H93.4434C93.3543 26.6159 93.2764 26.627 93.1984 26.6604C93.1205 26.6938 93.0425 26.7384 92.9868 26.8052C92.9311 26.8609 92.8755 26.9388 92.8421 27.0168C92.8086 27.0947 92.7975 27.1838 92.7975 27.2618V30.6919H93.1762V29.1662H96.4949V30.6919H96.4838ZM96.4838 28.7875H93.165V27.2618C93.165 27.195 93.1984 27.1282 93.243 27.0725C93.2987 27.0168 93.3655 26.9945 93.4323 26.9945H96.2054C96.2722 26.9945 96.3502 27.0279 96.3947 27.0725C96.4504 27.1282 96.4727 27.195 96.4727 27.2618V28.7875H96.4838ZM93.2541 28.6984H96.3947V27.2618C96.3947 27.2172 96.3724 27.1727 96.339 27.1393C96.3056 27.1059 96.2611 27.0836 96.2165 27.0836H93.4434C93.3989 27.0836 93.3543 27.1059 93.3209 27.1393C93.2875 27.1727 93.2652 27.2172 93.2652 27.2618V28.6984H93.2541Z" fill="white"/>
<path d="M101.918 26.5664C102.007 26.5664 102.096 26.5775 102.185 26.6221C102.274 26.6555 102.352 26.7112 102.408 26.7669C102.475 26.8337 102.519 26.9116 102.564 26.9896C102.597 27.0787 102.62 27.1678 102.62 27.2569V30.03C102.62 30.1191 102.609 30.2082 102.564 30.2973C102.531 30.3863 102.475 30.4643 102.408 30.52C102.341 30.5868 102.263 30.6314 102.185 30.6759C102.096 30.7093 102.007 30.7316 101.918 30.7316H98.4434V26.5664H101.918ZM102.141 27.2569C102.141 27.2012 102.119 27.1455 102.074 27.101C102.029 27.0564 101.974 27.0342 101.918 27.0342H99.145C99.0893 27.0342 99.0336 27.0564 98.9891 27.101C98.9445 27.1455 98.9222 27.2012 98.9222 27.2569V30.03C98.9222 30.0856 98.9445 30.1413 98.9891 30.1859C99.0336 30.2304 99.0893 30.2527 99.145 30.2527H101.918C101.974 30.2527 102.029 30.2304 102.074 30.1859C102.119 30.1413 102.141 30.0856 102.141 30.03V27.2569Z" fill="white"/>
<path d="M101.918 30.7677H98.4102V26.5469H101.918C102.018 26.5469 102.108 26.5691 102.197 26.6026C102.286 26.636 102.364 26.6917 102.431 26.7585C102.497 26.8253 102.553 26.9033 102.586 26.9923C102.62 27.0814 102.642 27.1705 102.642 27.2708V30.0439C102.642 30.1441 102.62 30.2332 102.586 30.3223C102.553 30.4114 102.497 30.4893 102.431 30.5561C102.364 30.623 102.286 30.6787 102.197 30.7121C102.108 30.7455 102.007 30.7677 101.918 30.7677ZM98.477 30.7009H101.918C102.007 30.7009 102.096 30.6898 102.174 30.6564C102.252 30.623 102.33 30.5784 102.386 30.5116C102.453 30.4448 102.497 30.378 102.531 30.3C102.564 30.222 102.575 30.1329 102.575 30.0439V27.2708C102.575 27.1817 102.564 27.0926 102.531 27.0146C102.497 26.9367 102.453 26.8587 102.386 26.803C102.319 26.7362 102.252 26.6917 102.174 26.6582C102.096 26.6248 102.007 26.6137 101.918 26.6137H98.477V30.7009ZM101.918 30.3H99.1452C99.0784 30.3 99.0115 30.2666 98.967 30.222C98.9225 30.1775 98.889 30.1107 98.889 30.0439V27.2708C98.889 27.2039 98.9225 27.1371 98.967 27.0926C99.0115 27.048 99.0784 27.0146 99.1452 27.0146H101.918C101.985 27.0146 102.052 27.048 102.096 27.0926C102.141 27.1371 102.174 27.2039 102.174 27.2708V30.0439C102.174 30.1107 102.141 30.1775 102.096 30.222C102.052 30.2666 101.985 30.2889 101.918 30.3ZM99.1452 27.0703C99.0895 27.0703 99.045 27.0926 99.0115 27.126C98.9781 27.1594 98.9559 27.2151 98.9559 27.2596V30.0327C98.9559 30.0884 98.9781 30.1329 99.0115 30.1664C99.045 30.1998 99.1006 30.222 99.1452 30.222H101.918C101.974 30.222 102.018 30.1998 102.052 30.1664C102.085 30.1329 102.108 30.0773 102.108 30.0327V27.2596C102.108 27.204 102.085 27.1594 102.052 27.126C102.018 27.0926 101.963 27.0703 101.918 27.0703H99.1452Z" fill="white"/>
<path d="M101.918 30.7455H98.4326V26.5469H101.918C102.008 26.5469 102.108 26.558 102.186 26.6026C102.275 26.636 102.353 26.6917 102.42 26.7585C102.486 26.8253 102.542 26.9033 102.576 26.9923C102.609 27.0814 102.631 27.1705 102.631 27.2596V30.0327C102.631 30.1218 102.609 30.222 102.576 30.3C102.542 30.3891 102.486 30.467 102.42 30.5339C102.353 30.6007 102.275 30.6564 102.186 30.6898C102.108 30.7343 102.008 30.7455 101.918 30.7455ZM98.4549 30.7232H101.907C101.996 30.7232 102.086 30.7121 102.163 30.6786C102.241 30.6452 102.319 30.5896 102.386 30.5339C102.453 30.467 102.498 30.4002 102.531 30.3111C102.564 30.2332 102.587 30.1441 102.576 30.055V27.2819C102.576 27.1928 102.564 27.1037 102.52 27.0258C102.486 26.9478 102.431 26.8698 102.375 26.803C102.308 26.7362 102.241 26.6917 102.152 26.6582C102.074 26.6248 101.985 26.6026 101.896 26.6137H98.4438V30.7232H98.4549ZM101.918 30.2777H99.1454C99.0786 30.2777 99.0229 30.2555 98.9783 30.2109C98.9338 30.1664 98.9115 30.0995 98.9115 30.0438V27.2708C98.9115 27.2039 98.9338 27.1483 98.9783 27.1037C99.0229 27.0592 99.0897 27.0369 99.1454 27.0369H101.918C101.985 27.0369 102.041 27.0592 102.086 27.1037C102.13 27.1483 102.152 27.2151 102.152 27.2708V30.0438C102.152 30.1107 102.13 30.1664 102.086 30.2109C102.041 30.2555 101.985 30.2777 101.918 30.2777ZM99.1454 27.048C99.0897 27.048 99.034 27.0703 99.0006 27.1149C98.9561 27.1594 98.9338 27.204 98.9338 27.2596V30.0327C98.9338 30.0884 98.9561 30.1441 99.0006 30.1775C99.0451 30.222 99.0897 30.2443 99.1454 30.2443H101.918C101.974 30.2443 102.03 30.222 102.063 30.1775C102.108 30.1329 102.13 30.0884 102.13 30.0327V27.2485C102.13 27.1928 102.108 27.1371 102.063 27.1037C102.019 27.0592 101.974 27.0369 101.918 27.0369L99.1454 27.048Z" fill="white"/>
<path d="M101.918 30.7777H98.3984V26.5234H101.918C102.018 26.5234 102.107 26.5346 102.207 26.5791C102.296 26.6125 102.385 26.6682 102.452 26.735C102.519 26.8019 102.575 26.891 102.608 26.9801C102.642 27.0691 102.664 27.1694 102.664 27.2696V30.0427C102.664 30.1429 102.642 30.232 102.608 30.3322C102.575 30.4213 102.519 30.4993 102.452 30.5773C102.385 30.6441 102.296 30.6998 102.207 30.7332C102.107 30.7554 102.018 30.7777 101.918 30.7777ZM98.4875 30.6886H101.918C102.007 30.6886 102.085 30.6775 102.163 30.6441C102.241 30.6107 102.319 30.5661 102.374 30.4993C102.43 30.4436 102.486 30.3657 102.519 30.2877C102.552 30.2097 102.564 30.1206 102.564 30.0427V27.2696C102.564 27.1805 102.552 27.1026 102.519 27.0246C102.486 26.9466 102.441 26.8687 102.374 26.813C102.307 26.7573 102.241 26.7016 102.163 26.6682C102.085 26.6348 101.996 26.6237 101.918 26.6237H98.4875V30.6886ZM101.918 30.31H99.1446C99.0778 30.31 98.9998 30.2766 98.9553 30.232C98.8996 30.1763 98.8773 30.1095 98.8773 30.0427V27.2696C98.8773 27.2028 98.9107 27.1248 98.9553 27.0803C99.011 27.0246 99.0778 27.0023 99.1446 27.0023H101.918C101.985 27.0023 102.062 27.0357 102.107 27.0803C102.163 27.136 102.185 27.2028 102.185 27.2696V30.0427C102.185 30.1095 102.152 30.1875 102.107 30.232C102.051 30.2766 101.985 30.31 101.918 30.31ZM99.1446 27.0803C99.1001 27.0803 99.0555 27.1026 99.0221 27.136C98.9887 27.1694 98.9664 27.2139 98.9664 27.2585V30.0315C98.9664 30.0761 98.9887 30.1206 99.0221 30.1541C99.0555 30.1875 99.1001 30.2097 99.1446 30.2097H101.918C101.962 30.2097 102.007 30.1875 102.04 30.1541C102.074 30.1206 102.096 30.0761 102.096 30.0315V27.2585C102.096 27.2139 102.074 27.1694 102.04 27.136C102.007 27.1026 101.962 27.0803 101.918 27.0803H99.1446Z" fill="white"/>
<path d="M107.943 27.0342H104.613V28.4151H107.297V28.894H104.613V30.275H107.943V30.7427H104.146V26.5664H107.943V27.0342Z" fill="white"/>
<path d="M107.965 30.7677H104.101V26.5469H107.965V27.0814H104.635V28.3956H107.319V28.9302H104.635V30.2443H107.965V30.7677ZM104.167 30.7009H107.909V30.2889H104.579V28.8522H107.263V28.4401H104.579V27.0035H107.909V26.6026H104.167V30.7009Z" fill="white"/>
<path d="M107.954 30.7455H104.123V26.5469H107.954V27.048H104.624V28.3956H107.308V28.8967H104.624V30.2443H107.954V30.7455ZM104.156 30.7232H107.932V30.2777H104.602V28.8745H107.286V28.429H104.602V27.0146H107.932V26.5803H104.156V30.7232Z" fill="white"/>
<path d="M107.987 30.7777H104.101V26.5234H107.987V27.0803H104.657V28.3722H107.341V28.9401H104.657V30.232H107.987V30.7777ZM104.179 30.6886H107.898V30.31H104.568V28.8399H107.252V28.4501H104.568V26.9801H107.898V26.6014H104.179V30.6886Z" fill="white"/>
<path d="M113.59 28.4819C113.59 28.571 113.568 28.6601 113.534 28.7492C113.501 28.8383 113.445 28.9051 113.378 28.972C113.312 29.0388 113.234 29.0833 113.156 29.1279C113.067 29.1613 112.977 29.1836 112.888 29.1836H112.254L113.557 30.7316H112.933L111.63 29.1836H110.115C110.037 29.1836 109.959 29.1724 109.893 29.1613V30.7316H109.425V26.5664H112.899C112.989 26.5664 113.078 26.5887 113.167 26.6221C113.256 26.6555 113.323 26.7112 113.39 26.778C113.456 26.8448 113.501 26.9228 113.534 27.0007C113.568 27.0898 113.59 27.1789 113.59 27.268V28.4819ZM112.899 28.7047C112.955 28.7047 113.011 28.6824 113.055 28.6379C113.1 28.5933 113.122 28.5376 113.122 28.4819V27.2569C113.122 27.2012 113.1 27.1455 113.055 27.101C113.011 27.0564 112.955 27.0342 112.899 27.0342H110.115C110.06 27.0342 110.004 27.0564 109.959 27.101C109.915 27.1455 109.893 27.2012 109.893 27.2569V28.4819C109.893 28.5376 109.915 28.5933 109.959 28.6379C110.004 28.6824 110.06 28.7047 110.115 28.7047H112.899Z" fill="white"/>
<path d="M113.634 30.7677H112.944L111.641 29.2197H110.115C110.048 29.2197 109.981 29.2086 109.914 29.1974V30.7677H109.38V26.5469H112.888C113.077 26.5469 113.267 26.6248 113.4 26.7585C113.534 26.8921 113.612 27.0814 113.612 27.2708V28.4958C113.612 28.6852 113.534 28.8745 113.4 29.0081C113.267 29.1418 113.077 29.2197 112.888 29.2197H112.309L113.634 30.7677ZM112.966 30.7009H113.512L112.197 29.1529H112.899C113.077 29.1529 113.244 29.0861 113.367 28.9524C113.489 28.8299 113.567 28.6629 113.567 28.4847V27.2596C113.567 27.0814 113.501 26.9144 113.367 26.7919C113.233 26.6694 113.077 26.6026 112.899 26.6026H109.447V30.7009H109.859V29.1195L109.914 29.1306C109.981 29.1418 110.048 29.1418 110.104 29.1529H111.641L112.966 30.7009ZM112.899 28.7408H110.115C110.048 28.7408 109.981 28.7186 109.937 28.6629C109.892 28.6183 109.859 28.5515 109.859 28.4847V27.2596C109.859 27.1928 109.881 27.126 109.937 27.0814C109.981 27.0369 110.048 27.0035 110.115 27.0035H112.888C112.955 27.0035 113.022 27.0369 113.066 27.0814C113.111 27.126 113.144 27.1928 113.144 27.2596V28.4847C113.144 28.5515 113.122 28.6183 113.066 28.6629C113.022 28.7074 112.966 28.7408 112.899 28.7408ZM110.115 27.0703C110.059 27.0703 110.015 27.0926 109.981 27.126C109.948 27.1594 109.926 27.2151 109.926 27.2596V28.4847C109.926 28.5404 109.948 28.5849 109.981 28.6183C110.015 28.6517 110.07 28.674 110.115 28.674H112.888C112.933 28.674 112.988 28.6517 113.022 28.6183C113.055 28.5849 113.077 28.5292 113.077 28.4847V27.2596C113.077 27.204 113.055 27.1594 113.022 27.126C112.988 27.0926 112.933 27.0703 112.888 27.0703H110.115Z" fill="white"/>
<path d="M113.6 30.7461H112.943L111.64 29.198H110.114C110.047 29.198 109.98 29.1869 109.914 29.1758H109.903V30.7461H109.401V26.5586H112.887C113.077 26.5586 113.255 26.6366 113.388 26.7702C113.522 26.9038 113.6 27.082 113.6 27.2714V28.4964C113.6 28.6857 113.522 28.8639 113.388 28.9976C113.255 29.1312 113.077 29.2092 112.887 29.2092H112.286L113.6 30.7461ZM112.954 30.7238H113.533L112.23 29.1646H112.898C113.077 29.1646 113.255 29.0978 113.377 28.9642C113.5 28.8305 113.578 28.6635 113.578 28.4853V27.2602C113.578 27.082 113.511 26.9038 113.377 26.7813C113.255 26.6588 113.077 26.5809 112.898 26.5809H109.446V30.7238H109.88V29.1535H109.925C109.992 29.1646 110.058 29.1646 110.125 29.1758H111.662L112.954 30.7238ZM112.898 28.7191H110.114C110.047 28.7191 109.992 28.6969 109.947 28.6523C109.903 28.6078 109.88 28.5521 109.88 28.4853V27.2602C109.88 27.1934 109.903 27.1377 109.947 27.0932C109.992 27.0486 110.047 27.0263 110.114 27.0263H112.887C112.954 27.0263 113.01 27.0486 113.054 27.1043C113.099 27.1488 113.121 27.2045 113.121 27.2714V28.4964C113.121 28.5298 113.11 28.5632 113.099 28.5855C113.088 28.6189 113.065 28.6412 113.043 28.6635C113.021 28.6857 112.999 28.708 112.965 28.7191C112.954 28.7191 112.921 28.7191 112.898 28.7191ZM110.114 27.0598C110.058 27.0598 110.003 27.082 109.969 27.1266C109.925 27.1711 109.903 27.2157 109.903 27.2714V28.4964C109.903 28.5521 109.925 28.6078 109.969 28.6412C110.014 28.6746 110.058 28.6969 110.114 28.6969H112.887C112.943 28.6969 112.987 28.6746 113.032 28.6412C113.065 28.6078 113.088 28.5521 113.088 28.4964V27.2714C113.088 27.2157 113.065 27.16 113.032 27.1266C112.999 27.082 112.943 27.0598 112.887 27.0598H110.114Z" fill="white"/>
<path d="M113.668 30.7783H112.933L111.63 29.2303H110.115C110.059 29.2303 109.992 29.2191 109.937 29.2191V30.7894H109.38V26.5352H112.899C113.1 26.5352 113.289 26.6131 113.423 26.7579C113.556 26.9027 113.645 27.092 113.645 27.2813V28.5064C113.645 28.7068 113.567 28.885 113.423 29.0298C113.289 29.1635 113.1 29.2414 112.899 29.2414H112.353L113.668 30.7783ZM112.966 30.6892H113.467L112.164 29.1412H112.899C113.066 29.1412 113.233 29.0744 113.356 28.9518C113.478 28.8293 113.545 28.6623 113.545 28.4952V27.2702C113.545 27.1031 113.478 26.9361 113.356 26.8136C113.233 26.6911 113.066 26.6242 112.899 26.6242H109.469V30.7003H109.848V29.1189L109.926 29.13C109.992 29.1412 110.048 29.1412 110.115 29.1523H111.663L111.674 29.1635L112.966 30.6892ZM112.899 28.7514H110.115C110.048 28.7514 109.981 28.718 109.926 28.6734C109.87 28.6289 109.848 28.5621 109.848 28.4841V27.2591C109.848 27.1922 109.881 27.1254 109.926 27.0697C109.981 27.014 110.048 26.9918 110.115 26.9918H112.888C112.955 26.9918 113.022 27.0252 113.077 27.0697C113.122 27.1254 113.155 27.1922 113.155 27.2591V28.4841C113.155 28.5509 113.133 28.6177 113.077 28.6734C113.033 28.7291 112.966 28.7514 112.899 28.7514ZM110.115 27.0809C110.07 27.0809 110.026 27.1031 109.992 27.1365C109.959 27.17 109.937 27.2145 109.937 27.2591V28.4841C109.937 28.5287 109.959 28.5732 109.992 28.6066C110.026 28.64 110.07 28.6623 110.115 28.6623H112.888C112.933 28.6623 112.977 28.64 113.01 28.6066C113.044 28.5732 113.066 28.5287 113.066 28.4841V27.2591C113.066 27.2145 113.044 27.17 113.022 27.1365C112.988 27.1031 112.944 27.0809 112.899 27.0809H110.115Z" fill="white"/>
<path d="M119.024 28.5488C119.091 28.6156 119.158 28.6935 119.191 28.7826C119.236 28.8717 119.258 28.972 119.258 29.0611V30.03C119.258 30.1191 119.236 30.2082 119.202 30.2973C119.169 30.3863 119.113 30.4532 119.058 30.52C118.991 30.5868 118.913 30.6314 118.835 30.6759C118.757 30.7204 118.657 30.7316 118.567 30.7316H115.093V26.5664H118.389C118.478 26.5664 118.567 26.5775 118.657 26.6221C118.746 26.6555 118.812 26.7112 118.879 26.7669C118.946 26.8337 118.991 26.9116 119.024 26.9896C119.057 27.0787 119.08 27.1678 119.08 27.2569V28.1478C119.08 28.2592 119.058 28.3594 119.002 28.4485L119.024 28.5488ZM115.783 27.0342C115.728 27.0342 115.672 27.0564 115.627 27.101C115.583 27.1455 115.561 27.2012 115.561 27.2569V28.1478C115.561 28.2035 115.583 28.2592 115.627 28.3038C115.672 28.3483 115.728 28.3706 115.783 28.3706H118.378C118.434 28.3706 118.49 28.3483 118.534 28.3038C118.579 28.2592 118.601 28.2035 118.601 28.1478V27.2569C118.601 27.2012 118.579 27.1455 118.534 27.101C118.49 27.0564 118.434 27.0342 118.378 27.0342H115.783ZM118.79 29.0611C118.79 29.0054 118.768 28.9497 118.723 28.9051C118.679 28.8606 118.623 28.8383 118.567 28.8383H115.794C115.739 28.8383 115.683 28.8606 115.638 28.9051C115.594 28.9497 115.572 29.0054 115.572 29.0611V30.03C115.572 30.0856 115.594 30.1413 115.638 30.1859C115.683 30.2304 115.739 30.2527 115.794 30.2527H118.567C118.623 30.2527 118.679 30.2304 118.723 30.1859C118.768 30.1413 118.79 30.0856 118.79 30.03V29.0611Z" fill="white"/>
<path d="M118.556 30.7677H115.048V26.5469H118.367C118.456 26.5469 118.556 26.5691 118.645 26.6026C118.734 26.636 118.812 26.6917 118.879 26.7585C118.946 26.8253 119.001 26.9033 119.035 26.9923C119.068 27.0814 119.091 27.1705 119.091 27.2708V28.1617C119.091 28.2731 119.068 28.3733 119.013 28.4735L119.035 28.5515C119.113 28.6183 119.168 28.7074 119.202 28.7965C119.246 28.8856 119.269 28.9858 119.269 29.0861V30.055C119.269 30.1441 119.246 30.2443 119.213 30.3334C119.18 30.4225 119.124 30.5005 119.057 30.5673C118.99 30.6341 118.912 30.6898 118.823 30.7232C118.745 30.7455 118.656 30.7677 118.556 30.7677ZM115.115 30.7009H118.556C118.645 30.7009 118.734 30.6898 118.812 30.6564C118.89 30.623 118.968 30.5784 119.035 30.5116C119.102 30.4448 119.146 30.378 119.18 30.3C119.213 30.222 119.235 30.1329 119.224 30.0439V29.0749C119.224 28.9858 119.202 28.8856 119.168 28.8077C119.135 28.7297 119.079 28.6517 119.001 28.5849H118.99L118.968 28.4624V28.4513C119.013 28.3622 119.035 28.262 119.046 28.1617V27.2708C119.046 27.1817 119.035 27.0926 119.001 27.0146C118.968 26.9367 118.923 26.8587 118.857 26.803C118.79 26.7362 118.723 26.6917 118.645 26.6582C118.567 26.6248 118.478 26.6137 118.389 26.6137H115.126L115.115 30.7009ZM118.556 30.3H115.772C115.705 30.3 115.638 30.2666 115.594 30.222C115.549 30.1775 115.516 30.1107 115.516 30.0439V29.0749C115.516 29.0081 115.538 28.9413 115.594 28.8967C115.638 28.8522 115.705 28.8188 115.772 28.8188H118.556C118.623 28.8188 118.69 28.8522 118.734 28.8967C118.779 28.9413 118.812 29.0081 118.812 29.0749V30.0439C118.812 30.1107 118.79 30.1775 118.734 30.222C118.69 30.2666 118.623 30.2889 118.556 30.3ZM115.783 28.8745C115.727 28.8745 115.683 28.8968 115.649 28.9302C115.616 28.9636 115.594 29.0193 115.594 29.0638V30.0327C115.594 30.0884 115.616 30.1329 115.649 30.1664C115.683 30.1998 115.738 30.222 115.783 30.222H118.567C118.623 30.222 118.667 30.1998 118.701 30.1664C118.734 30.1329 118.756 30.0773 118.756 30.0327V29.0638C118.756 29.0081 118.734 28.9636 118.701 28.9302C118.667 28.8968 118.612 28.8745 118.567 28.8745H115.783ZM118.378 28.4067H115.783C115.716 28.4067 115.649 28.3733 115.605 28.3288C115.56 28.2842 115.527 28.2174 115.527 28.1506V27.2596C115.527 27.1928 115.549 27.126 115.605 27.0814C115.649 27.0369 115.716 27.0035 115.783 27.0035H118.378C118.445 27.0035 118.511 27.0369 118.556 27.0814C118.601 27.126 118.634 27.1928 118.634 27.2596V28.1506C118.634 28.2174 118.612 28.2842 118.556 28.3288C118.511 28.3733 118.445 28.4067 118.378 28.4067ZM115.783 27.0703C115.727 27.0703 115.683 27.0926 115.649 27.126C115.616 27.1594 115.594 27.2151 115.594 27.2596V28.1506C115.594 28.2063 115.616 28.2508 115.649 28.2842C115.683 28.3176 115.738 28.3399 115.783 28.3399H118.378C118.433 28.3399 118.478 28.3176 118.511 28.2842C118.545 28.2508 118.567 28.1951 118.567 28.1506V27.2596C118.567 27.204 118.545 27.1594 118.511 27.126C118.478 27.0926 118.422 27.0703 118.378 27.0703H115.783Z" fill="white"/>
<path d="M118.556 30.7455H115.07V26.5469H118.378C118.467 26.5469 118.567 26.5691 118.645 26.6026C118.734 26.636 118.812 26.6917 118.879 26.7585C118.946 26.8253 119.002 26.9033 119.035 26.9923C119.068 27.0814 119.091 27.1705 119.091 27.2596V28.1506C119.091 28.262 119.068 28.3622 119.013 28.4624L119.035 28.5515C119.113 28.6183 119.169 28.6963 119.202 28.7854C119.247 28.8745 119.269 28.9747 119.269 29.0749V30.0438C119.269 30.1329 119.247 30.2332 119.213 30.3111C119.18 30.4002 119.124 30.4782 119.057 30.545C118.99 30.6118 118.913 30.6675 118.823 30.7009C118.745 30.7343 118.656 30.7455 118.556 30.7455ZM115.104 30.7232H118.567C118.656 30.7232 118.745 30.7121 118.823 30.6786C118.901 30.6452 118.979 30.5896 119.046 30.5339C119.113 30.467 119.158 30.4002 119.191 30.3111C119.224 30.2332 119.247 30.1441 119.235 30.055V29.0861C119.235 28.9858 119.213 28.8967 119.169 28.8077C119.135 28.7186 119.068 28.6406 119.002 28.5849L118.979 28.4735C119.024 28.3845 119.057 28.2731 119.057 28.1729V27.2819C119.057 27.1928 119.046 27.1037 119.002 27.0258C118.968 26.9478 118.913 26.8698 118.857 26.803C118.79 26.7362 118.723 26.6917 118.634 26.6582C118.545 26.6248 118.467 26.6026 118.378 26.6137H115.104V30.7232ZM118.556 30.2777H115.772C115.705 30.2777 115.649 30.2555 115.605 30.2109C115.56 30.1664 115.538 30.0995 115.538 30.0438V29.0749C115.538 29.0081 115.56 28.9524 115.605 28.9079C115.649 28.8633 115.716 28.8411 115.772 28.8411H118.556C118.623 28.8411 118.679 28.8633 118.723 28.9079C118.768 28.9524 118.79 29.0193 118.79 29.0749V30.0438C118.79 30.1107 118.768 30.1664 118.723 30.2109C118.69 30.2555 118.623 30.2777 118.556 30.2777ZM115.783 28.8522C115.727 28.8522 115.672 28.8745 115.638 28.919C115.594 28.9636 115.571 29.0081 115.571 29.0638V30.0327C115.571 30.0884 115.594 30.1441 115.638 30.1775C115.672 30.222 115.727 30.2443 115.783 30.2443H118.567C118.623 30.2443 118.679 30.222 118.712 30.1775C118.745 30.1329 118.779 30.0884 118.779 30.0327V29.0638C118.779 29.0081 118.757 28.9524 118.712 28.919C118.668 28.8745 118.623 28.8522 118.567 28.8522H115.783ZM118.378 28.3845H115.783C115.716 28.3845 115.661 28.3622 115.616 28.3176C115.571 28.2731 115.549 28.2174 115.549 28.1506V27.2596C115.549 27.1928 115.571 27.1371 115.616 27.0926C115.661 27.048 115.727 27.0258 115.783 27.0258H118.378C118.445 27.0258 118.5 27.048 118.545 27.1037C118.59 27.1483 118.612 27.2039 118.612 27.2708V28.1617C118.612 28.2285 118.59 28.2842 118.545 28.3288C118.5 28.3622 118.445 28.3845 118.378 28.3845ZM115.783 27.048C115.727 27.048 115.672 27.0703 115.638 27.1149C115.594 27.1594 115.571 27.204 115.571 27.2596V28.1506C115.571 28.2063 115.594 28.262 115.638 28.2954C115.672 28.3399 115.727 28.3622 115.783 28.3622H118.378C118.434 28.3622 118.489 28.3399 118.523 28.2954C118.556 28.2508 118.578 28.2063 118.578 28.1506V27.2596C118.578 27.204 118.556 27.1483 118.523 27.1149C118.489 27.0703 118.434 27.048 118.378 27.048H115.783Z" fill="white"/>
<path d="M118.556 30.7777H115.037V26.5234H118.378C118.478 26.5234 118.568 26.5346 118.668 26.5791C118.757 26.6125 118.846 26.6682 118.913 26.735C118.98 26.8019 119.035 26.891 119.069 26.9801C119.102 27.0691 119.124 27.1694 119.124 27.2696V28.1606C119.124 28.2719 119.102 28.3722 119.046 28.4724L119.069 28.5392C119.147 28.606 119.202 28.6951 119.236 28.7842C119.28 28.8733 119.303 28.9735 119.303 29.0738V30.0427C119.303 30.1429 119.28 30.232 119.247 30.3322C119.213 30.4213 119.158 30.4993 119.091 30.5773C119.024 30.6441 118.935 30.6998 118.846 30.7332C118.757 30.7554 118.657 30.7777 118.556 30.7777ZM115.137 30.6886H118.568C118.657 30.6886 118.735 30.6775 118.813 30.6441C118.89 30.6107 118.968 30.5661 119.024 30.4993C119.091 30.4436 119.135 30.3657 119.169 30.2877C119.202 30.2097 119.213 30.1206 119.213 30.0427V29.0738C119.213 28.9847 119.191 28.8956 119.158 28.8065C119.124 28.7285 119.069 28.6506 119.002 28.5838L118.991 28.5726L118.98 28.5615L118.946 28.439V28.4278C118.991 28.3387 119.024 28.2385 119.024 28.1383V27.2473C119.024 27.1582 119.013 27.0803 118.98 27.0023C118.946 26.9244 118.902 26.8464 118.835 26.7907C118.779 26.735 118.701 26.6794 118.623 26.6459C118.545 26.6125 118.456 26.6014 118.378 26.6014H115.126L115.137 30.6886ZM118.556 30.31H115.772C115.705 30.31 115.639 30.2766 115.583 30.232C115.527 30.1763 115.505 30.1095 115.505 30.0427V29.0738C115.505 29.007 115.538 28.929 115.583 28.8845C115.627 28.8288 115.705 28.8065 115.772 28.8065H118.556C118.623 28.8065 118.69 28.8399 118.746 28.8845C118.79 28.9401 118.824 29.007 118.824 29.0738V30.0427C118.824 30.1095 118.79 30.1763 118.746 30.232C118.701 30.2766 118.634 30.31 118.556 30.31ZM115.783 28.8845C115.739 28.8845 115.694 28.9067 115.661 28.9401C115.627 28.9735 115.605 29.0181 115.605 29.0626V30.0315C115.605 30.0761 115.627 30.1206 115.661 30.1541C115.694 30.1875 115.739 30.2097 115.783 30.2097H118.568C118.612 30.2097 118.657 30.1875 118.69 30.1541C118.723 30.1206 118.746 30.0761 118.746 30.0315V29.0626C118.746 29.0181 118.723 28.9735 118.69 28.9401C118.657 28.9067 118.612 28.8845 118.568 28.8845H115.783ZM118.378 28.4167H115.783C115.716 28.4167 115.65 28.3833 115.594 28.3387C115.538 28.2831 115.516 28.2162 115.516 28.1494V27.2585C115.516 27.1917 115.549 27.1137 115.594 27.0691C115.638 27.0135 115.716 26.9912 115.783 26.9912H118.378C118.445 26.9912 118.512 27.0246 118.568 27.0691C118.612 27.1248 118.645 27.1917 118.645 27.2585V28.1494C118.645 28.2162 118.623 28.2831 118.568 28.3387C118.523 28.3833 118.456 28.4167 118.378 28.4167ZM115.783 27.0803C115.739 27.0803 115.694 27.1026 115.661 27.136C115.627 27.1694 115.605 27.2139 115.605 27.2585V28.1494C115.605 28.194 115.627 28.2385 115.661 28.2719C115.694 28.3053 115.739 28.3276 115.783 28.3276H118.378C118.423 28.3276 118.467 28.3053 118.501 28.2719C118.534 28.2385 118.556 28.194 118.556 28.1494V27.2585C118.556 27.2139 118.534 27.1694 118.501 27.136C118.467 27.1026 118.423 27.0803 118.378 27.0803H115.783Z" fill="white"/>
<path d="M124.214 26.5664C124.303 26.5664 124.392 26.5775 124.481 26.6221C124.571 26.6555 124.648 26.7112 124.704 26.7669C124.771 26.8337 124.816 26.9116 124.86 26.9896C124.893 27.0787 124.916 27.1678 124.916 27.2569V30.03C124.916 30.1191 124.893 30.2082 124.86 30.2973C124.827 30.3863 124.771 30.4643 124.715 30.52C124.648 30.5868 124.571 30.6314 124.493 30.6759C124.403 30.7093 124.314 30.7316 124.225 30.7316H121.452C121.363 30.7316 121.274 30.7093 121.185 30.6759C121.096 30.6425 121.029 30.5868 120.962 30.52C120.895 30.4532 120.851 30.3752 120.817 30.2973C120.784 30.2082 120.762 30.1191 120.762 30.03V27.2569C120.762 27.1678 120.784 27.0787 120.817 26.9896C120.851 26.9005 120.907 26.8337 120.962 26.7669C121.029 26.7 121.107 26.6555 121.185 26.6221C121.274 26.5887 121.363 26.5664 121.452 26.5664H124.214ZM124.214 30.2638C124.27 30.2638 124.326 30.2416 124.37 30.197C124.415 30.1525 124.437 30.0968 124.437 30.0411V27.268C124.437 27.2123 124.415 27.1567 124.37 27.1121C124.326 27.0676 124.27 27.0453 124.214 27.0453H121.441C121.385 27.0453 121.33 27.0676 121.285 27.1121C121.241 27.1567 121.218 27.2123 121.218 27.268V30.0411C121.218 30.0968 121.241 30.1525 121.285 30.197C121.33 30.2416 121.385 30.2638 121.441 30.2638H124.214Z" fill="white"/>
<path d="M124.214 30.7677H121.441C121.34 30.7677 121.251 30.7455 121.162 30.7121C121.073 30.6787 120.995 30.623 120.928 30.5561C120.862 30.4893 120.806 30.4114 120.772 30.3223C120.739 30.2332 120.717 30.1441 120.717 30.0439V27.2708C120.717 27.1705 120.739 27.0814 120.772 26.9923C120.806 26.9033 120.862 26.8253 120.928 26.7585C120.995 26.6917 121.073 26.636 121.162 26.6026C121.251 26.5691 121.34 26.5469 121.441 26.5469H124.214C124.314 26.5469 124.403 26.5691 124.492 26.6026C124.581 26.636 124.659 26.6917 124.726 26.7585C124.793 26.8253 124.849 26.9033 124.882 26.9923C124.915 27.0814 124.938 27.1705 124.938 27.2708V30.0439C124.938 30.1441 124.915 30.2332 124.882 30.3223C124.849 30.4114 124.793 30.4893 124.726 30.5561C124.659 30.623 124.581 30.6787 124.492 30.7121C124.403 30.7455 124.314 30.7677 124.214 30.7677ZM121.441 26.6026C121.352 26.6026 121.263 26.6137 121.185 26.6471C121.107 26.6805 121.029 26.7251 120.973 26.7919C120.906 26.8587 120.862 26.9255 120.828 27.0035C120.795 27.0814 120.784 27.1705 120.784 27.2596V30.0327C120.784 30.1218 120.795 30.2109 120.828 30.2889C120.862 30.3668 120.906 30.4448 120.973 30.5005C121.04 30.5673 121.107 30.6118 121.185 30.6452C121.263 30.6786 121.352 30.6898 121.441 30.6898H124.214C124.303 30.6898 124.392 30.6786 124.47 30.6452C124.548 30.6118 124.626 30.5673 124.682 30.5005C124.748 30.4336 124.793 30.3668 124.826 30.2889C124.86 30.2109 124.882 30.1218 124.871 30.0327V27.2596C124.871 27.1705 124.86 27.0814 124.826 27.0035C124.793 26.9255 124.748 26.8476 124.682 26.7919C124.615 26.7251 124.548 26.6805 124.47 26.6471C124.392 26.6137 124.303 26.6026 124.214 26.6026H121.441ZM124.214 30.3H121.441C121.374 30.3 121.307 30.2666 121.263 30.222C121.218 30.1775 121.185 30.1107 121.185 30.0439V27.2708C121.185 27.2039 121.207 27.1371 121.263 27.0926C121.307 27.048 121.374 27.0146 121.441 27.0146H124.214C124.281 27.0146 124.347 27.048 124.392 27.0926C124.437 27.1371 124.47 27.2039 124.47 27.2708V30.0439C124.47 30.1107 124.448 30.1775 124.392 30.222C124.347 30.2666 124.281 30.2889 124.214 30.3ZM121.441 27.0703C121.385 27.0703 121.34 27.0926 121.307 27.126C121.274 27.1594 121.251 27.2151 121.251 27.2596V30.0327C121.251 30.0884 121.274 30.1329 121.307 30.1664C121.34 30.1998 121.396 30.222 121.441 30.222H124.214C124.269 30.222 124.314 30.1998 124.347 30.1664C124.381 30.1329 124.403 30.0773 124.403 30.0327V27.2596C124.403 27.204 124.381 27.1594 124.347 27.126C124.314 27.0926 124.258 27.0703 124.214 27.0703H121.441Z" fill="white"/>
<path d="M124.214 30.7455H121.441C121.352 30.7455 121.252 30.7232 121.174 30.6898C121.085 30.6564 121.007 30.6007 120.94 30.5339C120.873 30.467 120.818 30.3891 120.784 30.3C120.751 30.2109 120.729 30.1218 120.729 30.0327V27.2596C120.729 27.1705 120.751 27.0703 120.784 26.9923C120.818 26.9033 120.873 26.8253 120.94 26.7585C121.007 26.6917 121.085 26.636 121.174 26.6026C121.263 26.5691 121.352 26.5469 121.441 26.5469H124.214C124.303 26.5469 124.404 26.558 124.493 26.6026C124.582 26.6471 124.66 26.6917 124.727 26.7585C124.793 26.8253 124.849 26.9033 124.883 26.9923C124.916 27.0814 124.938 27.1705 124.938 27.2596V30.0327C124.938 30.1218 124.916 30.222 124.883 30.3C124.849 30.3891 124.793 30.467 124.727 30.5339C124.66 30.6007 124.582 30.6564 124.493 30.6898C124.404 30.7343 124.303 30.7455 124.214 30.7455ZM121.441 26.5803C121.352 26.5803 121.263 26.5914 121.185 26.6248C121.096 26.6582 121.029 26.7139 120.962 26.7696C120.896 26.8364 120.851 26.9033 120.818 26.9923C120.784 27.0703 120.773 27.1594 120.773 27.2485V30.0216C120.773 30.1107 120.795 30.1998 120.818 30.2777C120.851 30.3557 120.907 30.4336 120.962 30.5005C121.029 30.5673 121.096 30.6118 121.185 30.6452C121.274 30.6786 121.352 30.7009 121.441 30.6898H124.214C124.303 30.6898 124.393 30.6786 124.482 30.6452C124.56 30.6118 124.638 30.5561 124.704 30.5005C124.771 30.4336 124.816 30.3668 124.849 30.2777C124.883 30.1998 124.905 30.1107 124.905 30.0216V27.2485C124.905 27.1594 124.883 27.0703 124.849 26.9923C124.816 26.9144 124.76 26.8364 124.704 26.7696C124.638 26.7028 124.571 26.6582 124.482 26.6248C124.404 26.5914 124.315 26.5691 124.225 26.5803H121.441ZM124.214 30.2777H121.441C121.374 30.2777 121.319 30.2555 121.274 30.2109C121.23 30.1664 121.207 30.0995 121.207 30.0438V27.2708C121.207 27.2039 121.23 27.1483 121.274 27.1037C121.319 27.0592 121.386 27.0369 121.441 27.0369H124.214C124.281 27.0369 124.337 27.0592 124.381 27.1037C124.426 27.1483 124.448 27.2151 124.459 27.2708V30.0438C124.459 30.1107 124.437 30.1664 124.381 30.2109C124.337 30.2555 124.281 30.2777 124.214 30.2777ZM121.441 27.048C121.386 27.048 121.33 27.0703 121.296 27.1149C121.252 27.1594 121.23 27.204 121.23 27.2596V30.0327C121.23 30.0884 121.252 30.1441 121.296 30.1775C121.341 30.222 121.386 30.2443 121.441 30.2443H124.214C124.27 30.2443 124.326 30.222 124.37 30.1775C124.415 30.1329 124.437 30.0884 124.437 30.0327V27.2485C124.437 27.1928 124.415 27.1371 124.37 27.1037C124.326 27.0592 124.281 27.0369 124.214 27.0369L121.441 27.048Z" fill="white"/>
<path d="M124.214 30.781H121.44C121.34 30.781 121.24 30.7699 121.151 30.7254C121.062 30.6919 120.973 30.6363 120.906 30.5694C120.839 30.5026 120.783 30.4135 120.75 30.3244C120.717 30.2353 120.694 30.1351 120.694 30.0349V27.2618C120.694 27.1616 120.717 27.0725 120.75 26.9722C120.783 26.8831 120.839 26.8052 120.906 26.7272C120.973 26.6604 121.062 26.6047 121.151 26.5713C121.24 26.5379 121.34 26.5156 121.44 26.5156H124.214C124.314 26.5156 124.414 26.5268 124.503 26.5713C124.592 26.6047 124.681 26.6604 124.748 26.7272C124.815 26.794 124.871 26.8831 124.904 26.9722C124.937 27.0613 124.96 27.1616 124.96 27.2618V30.0349C124.96 30.1351 124.937 30.2242 124.904 30.3244C124.871 30.4247 124.815 30.4915 124.748 30.5694C124.681 30.6363 124.592 30.6919 124.503 30.7254C124.414 30.7588 124.314 30.781 124.214 30.781ZM121.44 26.6159C121.351 26.6159 121.273 26.627 121.195 26.6604C121.118 26.6938 121.04 26.7384 120.984 26.8052C120.928 26.8609 120.873 26.9388 120.839 27.0168C120.806 27.0947 120.795 27.1838 120.795 27.2618V30.0349C120.795 30.124 120.806 30.2019 120.839 30.2799C120.873 30.3578 120.917 30.4358 120.984 30.4915C121.051 30.5472 121.118 30.6029 121.195 30.6363C121.273 30.6697 121.363 30.6808 121.44 30.6808H124.214C124.303 30.6808 124.381 30.6697 124.459 30.6363C124.537 30.6029 124.615 30.5583 124.67 30.4915C124.726 30.4358 124.782 30.3578 124.815 30.2799C124.848 30.2019 124.86 30.1128 124.86 30.0349V27.2618C124.86 27.1727 124.848 27.0947 124.815 27.0168C124.782 26.9388 124.737 26.8609 124.67 26.8052C124.615 26.7495 124.537 26.6938 124.459 26.6604C124.381 26.627 124.292 26.6159 124.214 26.6159H121.44ZM124.214 30.3133H121.44C121.374 30.3133 121.307 30.2799 121.251 30.2353C121.195 30.1796 121.173 30.1128 121.173 30.046V27.2729C121.173 27.2061 121.207 27.1393 121.251 27.0836C121.296 27.0279 121.374 27.0056 121.44 27.0056H124.214C124.28 27.0056 124.347 27.0391 124.403 27.0836C124.447 27.1393 124.481 27.2061 124.481 27.2729V30.046C124.481 30.1128 124.447 30.1908 124.403 30.2353C124.358 30.2799 124.28 30.3133 124.214 30.3133ZM121.44 27.0836C121.396 27.0836 121.351 27.1059 121.318 27.1393C121.285 27.1727 121.262 27.2172 121.262 27.2618V30.0349C121.262 30.0794 121.285 30.124 121.318 30.1574C121.351 30.1908 121.396 30.2131 121.44 30.2131H124.214C124.258 30.2131 124.303 30.1908 124.347 30.1574C124.381 30.124 124.403 30.0794 124.403 30.0349V27.2618C124.403 27.2172 124.381 27.1727 124.347 27.1393C124.314 27.1059 124.269 27.0836 124.225 27.0836H121.44Z" fill="white"/>
<path d="M129.894 26.5664C129.983 26.5664 130.072 26.5775 130.161 26.6221C130.25 26.6555 130.328 26.7112 130.384 26.7669C130.45 26.8337 130.495 26.9116 130.528 26.9896C130.562 27.0787 130.584 27.1678 130.584 27.2569V30.7316H130.116V29.2058H126.887V30.7316H126.419V27.2569C126.419 27.1678 126.43 27.0787 126.475 26.9896C126.508 26.9005 126.564 26.8337 126.619 26.7669C126.686 26.7 126.764 26.6555 126.842 26.6221C126.931 26.5887 127.02 26.5664 127.109 26.5664H129.894ZM130.128 28.7381V27.2458C130.128 27.1901 130.105 27.1344 130.061 27.0898C130.016 27.0453 129.96 27.023 129.905 27.023H127.132C127.076 27.023 127.02 27.0453 126.976 27.0898C126.931 27.1344 126.909 27.1901 126.909 27.2458V28.7381H130.128Z" fill="white"/>
<path d="M130.617 30.7672H130.083V29.2414H126.909V30.7672H126.374V27.2591C126.374 27.1588 126.396 27.0697 126.43 26.9806C126.463 26.8915 126.519 26.8136 126.586 26.7468C126.652 26.6799 126.73 26.6243 126.819 26.5908C126.909 26.5574 126.998 26.5352 127.098 26.5352H129.871C129.971 26.5352 130.06 26.5574 130.149 26.5908C130.239 26.6243 130.316 26.6799 130.383 26.7468C130.45 26.8136 130.506 26.8915 130.539 26.9806C130.573 27.0697 130.595 27.1588 130.595 27.2591L130.617 30.7672ZM130.149 30.7003H130.561V27.2591C130.561 27.17 130.55 27.0809 130.517 27.0029C130.484 26.9249 130.439 26.847 130.372 26.7913C130.316 26.7245 130.239 26.6799 130.161 26.6465C130.083 26.6131 129.993 26.602 129.904 26.602H127.131C127.042 26.602 126.953 26.6131 126.875 26.6465C126.797 26.6799 126.719 26.7245 126.664 26.7913C126.597 26.8581 126.552 26.9249 126.519 27.0029C126.485 27.0809 126.474 27.17 126.474 27.2591V30.7003H126.886V29.1746H130.183L130.149 30.7003ZM130.149 28.7737H126.853V27.2591C126.853 27.1922 126.875 27.1254 126.931 27.0809C126.975 27.0363 127.042 27.0029 127.109 27.0029H129.882C129.949 27.0029 130.016 27.0363 130.06 27.0809C130.105 27.1254 130.138 27.1922 130.138 27.2591L130.149 28.7737ZM126.92 28.718H130.094V27.2702C130.094 27.2145 130.071 27.17 130.038 27.1365C130.005 27.1031 129.949 27.0809 129.904 27.0809H127.131C127.076 27.0809 127.031 27.1031 126.998 27.1365C126.964 27.17 126.942 27.2256 126.942 27.2702V28.718H126.92Z" fill="white"/>
<path d="M130.607 30.7455H130.106V29.2197H126.909V30.7455H126.408V27.2596C126.408 27.1705 126.43 27.0703 126.464 26.9923C126.497 26.9033 126.553 26.8253 126.62 26.7585C126.687 26.6917 126.765 26.636 126.854 26.6026C126.943 26.5691 127.032 26.5469 127.121 26.5469H129.894C129.983 26.5469 130.083 26.558 130.172 26.6026C130.262 26.6471 130.34 26.6917 130.406 26.7585C130.473 26.8253 130.529 26.9033 130.562 26.9923C130.596 27.0814 130.618 27.1705 130.618 27.2596V30.7455H130.607ZM130.139 30.7232H130.573V27.2708C130.573 27.1817 130.551 27.0926 130.518 27.0146C130.484 26.9367 130.429 26.8587 130.373 26.7919C130.306 26.7251 130.239 26.6805 130.15 26.6471C130.072 26.6137 129.983 26.5914 129.894 26.6026H127.121C127.032 26.6026 126.943 26.6137 126.865 26.6471C126.776 26.6805 126.709 26.7362 126.642 26.7919C126.575 26.8587 126.531 26.9255 126.497 27.0146C126.464 27.0926 126.453 27.1817 126.453 27.2708V30.7232H126.887V29.1974H130.15L130.139 30.7232ZM130.139 28.7631H126.876V27.2708C126.876 27.2039 126.898 27.1483 126.943 27.1037C126.987 27.0592 127.054 27.0369 127.11 27.0369H129.883C129.95 27.0369 130.005 27.0592 130.05 27.1037C130.094 27.1483 130.117 27.2151 130.128 27.2708V28.7631H130.139ZM126.909 28.7297H130.106V27.2596C130.106 27.204 130.083 27.1483 130.039 27.1149C129.994 27.0703 129.95 27.048 129.894 27.048H127.121C127.065 27.048 127.01 27.0703 126.976 27.1149C126.932 27.1594 126.909 27.204 126.909 27.2596V28.7297Z" fill="white"/>
<path d="M130.64 30.781H130.083V29.2553H126.943V30.781H126.386V27.2618C126.386 27.1616 126.408 27.0725 126.441 26.9722C126.475 26.8831 126.531 26.8052 126.597 26.7272C126.664 26.6604 126.753 26.6047 126.842 26.5713C126.931 26.5379 127.032 26.5156 127.132 26.5156H129.905C130.005 26.5156 130.105 26.5268 130.195 26.5713C130.284 26.6047 130.373 26.6604 130.44 26.7272C130.506 26.794 130.562 26.8831 130.595 26.9722C130.629 27.0613 130.651 27.1616 130.651 27.2618L130.64 30.781ZM130.172 30.6919H130.551V27.2618C130.551 27.1727 130.54 27.0947 130.506 27.0168C130.473 26.9388 130.428 26.8609 130.362 26.8052C130.295 26.7495 130.228 26.6938 130.15 26.6604C130.072 26.627 129.983 26.6159 129.905 26.6159H127.132C127.043 26.6159 126.965 26.627 126.887 26.6604C126.809 26.6938 126.731 26.7384 126.675 26.8052C126.608 26.8609 126.564 26.9388 126.531 27.0168C126.497 27.0947 126.486 27.1838 126.486 27.2618V30.6919H126.865V29.1662H130.183V30.6919H130.172ZM130.172 28.7875H126.853V27.2618C126.853 27.195 126.887 27.1282 126.931 27.0725C126.987 27.0168 127.054 26.9945 127.121 26.9945H129.894C129.961 26.9945 130.028 27.0279 130.083 27.0725C130.128 27.1282 130.161 27.195 130.161 27.2618V28.7875H130.172ZM126.943 28.6984H130.083V27.2618C130.083 27.2172 130.061 27.1727 130.028 27.1393C129.994 27.1059 129.95 27.0836 129.905 27.0836H127.132C127.087 27.0836 127.043 27.1059 127.009 27.1393C126.976 27.1727 126.954 27.2172 126.954 27.2618V28.6984H126.943Z" fill="white"/>
<path d="M136.287 28.4819C136.287 28.571 136.264 28.6601 136.231 28.7492C136.198 28.8383 136.142 28.9051 136.075 28.972C136.008 29.0388 135.93 29.0833 135.852 29.1279C135.763 29.1613 135.674 29.1836 135.585 29.1836H134.95L136.253 30.7316H135.63L134.327 29.1836H132.801C132.723 29.1836 132.645 29.1724 132.578 29.1613V30.7316H132.11V26.5664H135.585C135.674 26.5664 135.763 26.5887 135.852 26.6221C135.941 26.6555 136.008 26.7112 136.075 26.778C136.142 26.8448 136.186 26.9228 136.231 27.0007C136.264 27.0898 136.287 27.1789 136.287 27.268V28.4819ZM135.585 28.7047C135.641 28.7047 135.696 28.6824 135.741 28.6379C135.786 28.5933 135.808 28.5376 135.808 28.4819V27.2569C135.808 27.2012 135.786 27.1455 135.741 27.101C135.696 27.0564 135.641 27.0342 135.585 27.0342H132.812C132.756 27.0342 132.701 27.0564 132.656 27.101C132.612 27.1455 132.589 27.2012 132.589 27.2569V28.4819C132.589 28.5376 132.612 28.5933 132.656 28.6379C132.701 28.6824 132.756 28.7047 132.812 28.7047H135.585Z" fill="white"/>
<path d="M136.319 30.7677H135.629L134.326 29.2197H132.811C132.744 29.2197 132.678 29.2086 132.611 29.1974V30.7677H132.076V26.5469H135.584C135.774 26.5469 135.963 26.6248 136.097 26.7585C136.23 26.8921 136.308 27.0814 136.308 27.2708V28.4958C136.308 28.6852 136.23 28.8745 136.097 29.0081C135.963 29.1418 135.774 29.2197 135.584 29.2197H135.005L136.319 30.7677ZM135.651 30.7009H136.197L134.894 29.1529H135.595C135.774 29.1529 135.941 29.0861 136.063 28.9524C136.186 28.8299 136.264 28.6629 136.264 28.4847V27.2596C136.264 27.0814 136.197 26.9144 136.063 26.7919C135.93 26.6694 135.774 26.6026 135.595 26.6026H132.154V30.7009H132.566V29.1195L132.622 29.1306C132.689 29.1418 132.756 29.1418 132.811 29.1529H134.348L135.651 30.7009ZM135.584 28.7408H132.811C132.744 28.7408 132.678 28.7186 132.633 28.6629C132.588 28.6183 132.555 28.5515 132.555 28.4847V27.2596C132.555 27.1928 132.577 27.126 132.633 27.0814C132.678 27.0369 132.744 27.0035 132.811 27.0035H135.584C135.651 27.0035 135.718 27.0369 135.762 27.0814C135.807 27.126 135.84 27.1928 135.84 27.2596V28.4847C135.84 28.5515 135.818 28.6183 135.762 28.6629C135.707 28.7074 135.651 28.7408 135.584 28.7408ZM132.811 27.0703C132.756 27.0703 132.711 27.0926 132.678 27.126C132.644 27.1594 132.622 27.2151 132.622 27.2596V28.4847C132.622 28.5404 132.644 28.5849 132.678 28.6183C132.711 28.6517 132.767 28.674 132.811 28.674H135.584C135.629 28.674 135.685 28.6517 135.718 28.6183C135.751 28.5849 135.774 28.5292 135.774 28.4847V27.2596C135.774 27.204 135.751 27.1594 135.718 27.126C135.685 27.0926 135.629 27.0703 135.584 27.0703H132.811Z" fill="white"/>
<path d="M136.286 30.7461H135.629L134.326 29.198H132.801C132.734 29.198 132.667 29.1869 132.6 29.1758H132.589V30.7461H132.088V26.5586H135.574C135.763 26.5586 135.941 26.6366 136.075 26.7702C136.209 26.9038 136.286 27.082 136.286 27.2714V28.4964C136.286 28.6857 136.209 28.8639 136.075 28.9976C135.941 29.1312 135.763 29.2092 135.574 29.2092H134.972L136.286 30.7461ZM135.641 30.7238H136.22L134.917 29.1758H135.585C135.674 29.1758 135.763 29.1535 135.841 29.1201C135.919 29.0867 135.997 29.031 136.064 28.9753C136.131 28.9085 136.175 28.8417 136.209 28.7526C136.242 28.6746 136.264 28.5855 136.264 28.4964V27.2714C136.264 27.0932 136.197 26.915 136.064 26.7925C135.941 26.67 135.763 26.592 135.585 26.592H132.132V30.7238H132.567V29.1535H132.611C132.678 29.1646 132.745 29.1646 132.812 29.1758H134.349L135.641 30.7238ZM135.585 28.7191H132.812C132.745 28.7191 132.689 28.6969 132.645 28.6523C132.6 28.6078 132.578 28.5521 132.567 28.4853V27.2602C132.567 27.1934 132.589 27.1377 132.634 27.0932C132.678 27.0486 132.734 27.0263 132.801 27.0263H135.574C135.641 27.0263 135.696 27.0486 135.741 27.1043C135.785 27.1488 135.808 27.2045 135.808 27.2714V28.4964C135.808 28.5298 135.796 28.5632 135.785 28.5855C135.774 28.6189 135.752 28.6412 135.73 28.6635C135.707 28.6857 135.685 28.708 135.652 28.7191C135.652 28.7191 135.618 28.7191 135.585 28.7191ZM132.812 27.0598C132.756 27.0598 132.7 27.082 132.667 27.1266C132.622 27.1711 132.6 27.2157 132.6 27.2714V28.4964C132.6 28.5521 132.622 28.6078 132.667 28.6412C132.712 28.6746 132.756 28.6969 132.812 28.6969H135.585C135.641 28.6969 135.685 28.6746 135.73 28.6412C135.763 28.6078 135.785 28.5521 135.785 28.4964V27.2714C135.785 27.2157 135.763 27.16 135.73 27.1266C135.696 27.082 135.641 27.0598 135.585 27.0598H132.812Z" fill="white"/>
<path d="M136.353 30.7783H135.618L134.315 29.2303H132.811C132.756 29.2303 132.689 29.2191 132.633 29.2191V30.7894H132.076V26.5352H135.595C135.796 26.5352 135.985 26.6131 136.119 26.7579C136.252 26.9027 136.342 27.092 136.342 27.2813V28.5064C136.342 28.7068 136.264 28.885 136.119 29.0298C135.985 29.1635 135.796 29.2414 135.595 29.2414H135.05L136.353 30.7783ZM135.662 30.6892H136.163L134.849 29.1412H135.584C135.751 29.1412 135.918 29.0744 136.041 28.9518C136.163 28.8293 136.23 28.6623 136.23 28.4952V27.2702C136.23 27.1031 136.163 26.9361 136.041 26.8136C135.918 26.6911 135.751 26.6242 135.584 26.6242H132.154V30.7003H132.533V29.1189L132.611 29.13C132.678 29.1412 132.744 29.1412 132.8 29.1523H134.348L134.359 29.1635L135.662 30.6892ZM135.584 28.7514H132.811C132.744 28.7514 132.678 28.718 132.622 28.6734C132.566 28.6289 132.544 28.5621 132.544 28.4841V27.2591C132.544 27.1922 132.577 27.1254 132.622 27.0697C132.678 27.014 132.744 26.9918 132.811 26.9918H135.584C135.651 26.9918 135.718 27.0252 135.774 27.0697C135.818 27.1254 135.852 27.1922 135.852 27.2591V28.4841C135.852 28.5509 135.829 28.6177 135.774 28.6734C135.718 28.7291 135.651 28.7514 135.584 28.7514ZM132.811 27.0809C132.767 27.0809 132.722 27.1031 132.689 27.1365C132.655 27.17 132.633 27.2145 132.633 27.2591V28.4841C132.633 28.5287 132.655 28.5732 132.689 28.6066C132.722 28.64 132.767 28.6623 132.811 28.6623H135.584C135.629 28.6623 135.673 28.64 135.707 28.6066C135.74 28.5732 135.762 28.5287 135.762 28.4841V27.2591C135.762 27.2145 135.74 27.17 135.718 27.1365C135.685 27.1031 135.64 27.0809 135.595 27.0809H132.811Z" fill="white"/>
<path d="M141.242 26.5664C141.331 26.5664 141.42 26.5775 141.51 26.6221C141.599 26.6555 141.665 26.7112 141.732 26.7669C141.799 26.8337 141.844 26.9116 141.877 26.9896C141.91 27.0787 141.933 27.1678 141.933 27.2569V30.03C141.933 30.1191 141.91 30.2082 141.877 30.2973C141.844 30.3863 141.788 30.4643 141.732 30.52C141.665 30.5868 141.588 30.6314 141.51 30.6759C141.42 30.7093 141.331 30.7316 141.242 30.7316H137.768V26.5664H141.242ZM141.476 27.2569C141.476 27.2012 141.454 27.1455 141.409 27.101C141.365 27.0564 141.309 27.0342 141.253 27.0342H138.469C138.414 27.0342 138.347 27.0564 138.313 27.101C138.269 27.1455 138.246 27.2012 138.246 27.2569V30.03C138.246 30.0856 138.269 30.1413 138.313 30.1859C138.358 30.2304 138.414 30.2527 138.469 30.2527H141.242C141.298 30.2527 141.365 30.2304 141.398 30.1859C141.443 30.1413 141.465 30.0856 141.465 30.03L141.476 27.2569Z" fill="white"/>
<path d="M141.242 30.7677H137.734V26.5469H141.242C141.332 26.5469 141.432 26.5691 141.521 26.6026C141.61 26.636 141.688 26.6917 141.755 26.7585C141.822 26.8253 141.877 26.9033 141.911 26.9923C141.944 27.0814 141.966 27.1705 141.966 27.2708V30.0439C141.966 30.1441 141.944 30.2332 141.911 30.3223C141.877 30.4114 141.822 30.4893 141.755 30.5561C141.688 30.623 141.61 30.6787 141.521 30.7121C141.432 30.7455 141.343 30.7677 141.242 30.7677ZM137.801 30.7009H141.242C141.332 30.7009 141.421 30.6898 141.499 30.6564C141.577 30.623 141.655 30.5784 141.71 30.5116C141.777 30.4448 141.822 30.378 141.855 30.3C141.888 30.222 141.9 30.1329 141.9 30.0439V27.2708C141.9 27.1817 141.888 27.0926 141.855 27.0146C141.822 26.9367 141.777 26.8587 141.71 26.803C141.655 26.7362 141.577 26.6917 141.499 26.6582C141.421 26.6248 141.332 26.6137 141.242 26.6137H137.801V30.7009ZM141.242 30.3H138.458C138.391 30.3 138.325 30.2666 138.28 30.222C138.236 30.1775 138.202 30.1107 138.202 30.0439V27.2708C138.202 27.2039 138.224 27.1371 138.28 27.0926C138.325 27.048 138.391 27.0146 138.458 27.0146H141.231C141.298 27.0146 141.365 27.048 141.41 27.0926C141.454 27.1371 141.487 27.2039 141.487 27.2708V30.0439C141.487 30.1107 141.465 30.1775 141.41 30.222C141.376 30.2666 141.309 30.2889 141.242 30.3ZM138.469 27.0703C138.414 27.0703 138.369 27.0926 138.336 27.126C138.302 27.1594 138.28 27.2151 138.28 27.2596V30.0327C138.28 30.0884 138.302 30.1329 138.336 30.1664C138.369 30.1998 138.425 30.222 138.469 30.222H141.242C141.298 30.222 141.343 30.1998 141.376 30.1664C141.41 30.1329 141.432 30.0773 141.432 30.0327V27.2596C141.432 27.204 141.41 27.1594 141.376 27.126C141.343 27.0926 141.287 27.0703 141.242 27.0703H138.469Z" fill="white"/>
<path d="M141.243 30.7455H137.757V26.5469H141.243C141.332 26.5469 141.432 26.558 141.51 26.6026C141.599 26.636 141.677 26.6917 141.744 26.7585C141.811 26.8253 141.866 26.9033 141.9 26.9923C141.933 27.0814 141.955 27.1705 141.955 27.2596V30.0327C141.955 30.1218 141.933 30.222 141.9 30.3C141.866 30.3891 141.811 30.467 141.744 30.5339C141.677 30.6007 141.599 30.6564 141.51 30.6898C141.432 30.7343 141.343 30.7455 141.243 30.7455ZM137.79 30.7232H141.243C141.332 30.7232 141.421 30.7121 141.499 30.6786C141.588 30.6452 141.655 30.5896 141.722 30.5339C141.788 30.467 141.833 30.4002 141.866 30.3111C141.9 30.2332 141.911 30.1441 141.911 30.055V27.2819C141.911 27.1928 141.9 27.1037 141.866 27.0258C141.833 26.9478 141.777 26.8698 141.722 26.803C141.655 26.7362 141.588 26.6917 141.499 26.6582C141.421 26.6248 141.332 26.6026 141.243 26.6137H137.79V30.7232ZM141.243 30.2777H138.458C138.392 30.2777 138.336 30.2555 138.291 30.2109C138.247 30.1664 138.225 30.0995 138.225 30.0438V27.2708C138.225 27.2039 138.247 27.1483 138.291 27.1037C138.336 27.0592 138.403 27.0369 138.458 27.0369H141.232C141.298 27.0369 141.354 27.0592 141.399 27.1037C141.443 27.1483 141.465 27.2151 141.477 27.2708V30.0438C141.477 30.1107 141.454 30.1664 141.41 30.2109C141.365 30.2555 141.309 30.2777 141.243 30.2777ZM138.47 27.048C138.414 27.048 138.358 27.0703 138.325 27.1149C138.28 27.1594 138.258 27.204 138.258 27.2596V30.0327C138.258 30.0884 138.28 30.1441 138.325 30.1775C138.369 30.222 138.414 30.2443 138.47 30.2443H141.243C141.298 30.2443 141.354 30.222 141.399 30.1775C141.443 30.1329 141.465 30.0884 141.465 30.0327V27.2485C141.465 27.1928 141.443 27.1371 141.399 27.1037C141.354 27.0592 141.309 27.0369 141.243 27.0369L138.47 27.048Z" fill="white"/>
<path d="M141.242 30.7777H137.734V26.5234H141.254C141.354 26.5234 141.454 26.5346 141.543 26.5791C141.632 26.6125 141.71 26.6682 141.788 26.735C141.855 26.8019 141.911 26.891 141.944 26.9801C141.978 27.0691 142 27.1694 142 27.2696V30.0427C142 30.1429 141.978 30.232 141.944 30.3322C141.911 30.4213 141.855 30.4993 141.788 30.5773C141.721 30.6441 141.632 30.6998 141.543 30.7332C141.443 30.7554 141.343 30.7777 141.242 30.7777ZM137.823 30.6886H141.254C141.343 30.6886 141.421 30.6775 141.499 30.6441C141.577 30.6107 141.655 30.5661 141.71 30.4993C141.766 30.4436 141.822 30.3657 141.855 30.2877C141.888 30.2097 141.9 30.1206 141.9 30.0427V27.2696C141.9 27.1805 141.888 27.1026 141.855 27.0246C141.822 26.9466 141.777 26.8687 141.71 26.813C141.643 26.7573 141.577 26.7016 141.499 26.6682C141.421 26.6348 141.332 26.6237 141.254 26.6237H137.823V30.6886ZM141.242 30.31H138.458C138.391 30.31 138.313 30.2766 138.269 30.232C138.213 30.1763 138.191 30.1095 138.191 30.0427V27.2696C138.191 27.2028 138.224 27.1248 138.269 27.0803C138.325 27.0246 138.391 27.0023 138.458 27.0023H141.231C141.298 27.0023 141.365 27.0357 141.421 27.0803C141.465 27.136 141.499 27.2028 141.499 27.2696V30.0427C141.499 30.1095 141.465 30.1763 141.421 30.232C141.387 30.2766 141.32 30.31 141.242 30.31ZM138.469 27.0803C138.425 27.0803 138.38 27.1026 138.336 27.136C138.302 27.1694 138.28 27.2139 138.28 27.2585V30.0315C138.28 30.0761 138.302 30.1206 138.336 30.1541C138.369 30.1875 138.414 30.2097 138.469 30.2097H141.242C141.287 30.2097 141.332 30.1875 141.376 30.1541C141.41 30.1206 141.432 30.0761 141.432 30.0315V27.2585C141.432 27.2139 141.41 27.1694 141.376 27.136C141.343 27.1026 141.298 27.0803 141.242 27.0803H138.469Z" fill="white"/>
</svg>
