<svg width="37" height="37" viewBox="0 0 37 37" fill="none" xmlns="http://www.w3.org/2000/svg">
<rect x="1.25" y="1.25" width="34.5" height="34.5" rx="4.75" stroke="white" stroke-opacity="0.5" stroke-width="0.5"/>
<path d="M36 10L36 6C36 3.23858 33.7614 1 31 1L27 1" stroke="white"/>
<path d="M1 27L1 31C1 33.7614 3.23858 36 6 36L10 36" stroke="white"/>
<path d="M20.1778 20.4645V28H16.8034V20.4645H14V17.409H16.8034V16.2973C16.8034 12.1701 18.4841 10 22.0402 10C23.1304 10 23.403 10.1797 24 10.3262V13.3484C23.3316 13.2286 23.1434 13.162 22.4491 13.162C21.6249 13.162 21.1836 13.4016 20.7813 13.8743C20.379 14.3469 20.1778 15.1657 20.1778 16.3373V17.4157H24L22.9747 20.4712H20.1778V20.4645Z" fill="white"/>
</svg>
