<svg width="96" height="31" viewBox="0 0 96 31" fill="none" xmlns="http://www.w3.org/2000/svg">
<circle cx="15.3962" cy="15.1599" r="14.0963" stroke="white" stroke-width="1.65839"/>
<path d="M38.9541 21.043V10.2011H44.4717V12.1502H40.9676V14.6439H44.3141V16.593H40.9676V21.043H38.9541ZM46.0052 21.043V10.2011H48.0188V19.0939H51.3365V21.043H46.0052ZM57.5636 9.99332C59.121 9.99332 60.4514 10.5475 61.555 11.6558C62.6585 12.7593 63.2103 14.0969 63.2103 15.6686C63.2103 17.2308 62.6561 18.5612 61.5478 19.66C60.4395 20.7587 59.1114 21.3081 57.5636 21.3081C56.0158 21.3081 54.6854 20.7611 53.5723 19.6671C52.464 18.5684 51.9098 17.2355 51.9098 15.6686C51.9098 14.0969 52.4616 12.7593 53.5651 11.6558C54.6686 10.5475 56.0015 9.99332 57.5636 9.99332ZM57.5636 11.9424C56.5556 11.9424 55.6957 12.3031 54.9839 13.0244C54.2769 13.741 53.9234 14.6081 53.9234 15.6256C53.9234 16.6288 54.2817 17.5007 54.9983 18.2411C55.7196 18.9816 56.5747 19.3518 57.5636 19.3518C58.5525 19.3518 59.4052 18.9816 60.1218 18.2411C60.8432 17.5007 61.2038 16.6288 61.2038 15.6256C61.2038 14.6033 60.8479 13.7339 60.1361 13.0173C59.4291 12.3007 58.5716 11.9424 57.5636 11.9424ZM69.8888 9.99332C71.4461 9.99332 72.7766 10.5475 73.8801 11.6558C74.9836 12.7593 75.5354 14.0969 75.5354 15.6686C75.5354 17.2308 74.9813 18.5612 73.8729 19.66C72.7646 20.7587 71.4366 21.3081 69.8888 21.3081C68.341 21.3081 67.0105 20.7611 65.8974 19.6671C64.7891 18.5684 64.235 17.2355 64.235 15.6686C64.235 14.0969 64.7867 12.7593 65.8903 11.6558C66.9938 10.5475 68.3266 9.99332 69.8888 9.99332ZM69.8888 11.9424C68.8808 11.9424 68.0209 12.3031 67.3091 13.0244C66.6021 13.741 66.2485 14.6081 66.2485 15.6256C66.2485 16.6288 66.6068 17.5007 67.3234 18.2411C68.0448 18.9816 68.8999 19.3518 69.8888 19.3518C70.8776 19.3518 71.7304 18.9816 72.447 18.2411C73.1683 17.5007 73.529 16.6288 73.529 15.6256C73.529 14.6033 73.1731 13.7339 72.4613 13.0173C71.7543 12.3007 70.8968 11.9424 69.8888 11.9424ZM76.3881 19.3232L80.5085 12.1502H76.6246V10.2011H82.8875V12.0141L78.7958 19.0939H83.167V21.043H76.3881V19.3232Z" fill="white"/>
</svg>
