<svg width="37" height="37" viewBox="0 0 37 37" fill="none" xmlns="http://www.w3.org/2000/svg">
<rect x="1.25" y="1.25" width="34.5" height="34.5" rx="4.75" stroke="white" stroke-opacity="0.5" stroke-width="0.5"/>
<path d="M36 10L36 6C36 3.23858 33.7614 1 31 1L27 1" stroke="white"/>
<path d="M1 27L1 31C1 33.7614 3.23858 36 6 36L10 36" stroke="white"/>
<path d="M23.882 26.4672H13.5853C12.1624 26.4672 11 25.3048 11 23.882V13.5853C11 12.1624 12.1624 11 13.5853 11H23.882C25.3048 11 26.4672 12.1624 26.4672 13.5853V23.882C26.4672 25.3112 25.3112 26.4672 23.882 26.4672Z" fill="white"/>
<path d="M18.7366 22.7057C17.6758 22.7057 16.6786 22.2928 15.929 21.5433C15.1795 20.7937 14.7666 19.7964 14.7666 18.7357C14.7666 17.6749 15.1795 16.6776 15.929 15.9281C16.6786 15.1785 17.6758 14.7656 18.7366 14.7656C19.7974 14.7656 20.7947 15.1785 21.5442 15.9281C22.2938 16.6776 22.7067 17.6749 22.7067 18.7357C22.7067 19.7964 22.2938 20.7937 21.5442 21.5433C20.7883 22.2928 19.7974 22.7057 18.7366 22.7057ZM18.7366 15.6104C17.0152 15.6104 15.6114 17.0079 15.6114 18.7357C15.6114 20.4571 17.0089 21.8609 18.7366 21.8609C20.458 21.8609 21.8618 20.4634 21.8618 18.7357C21.8555 17.0143 20.458 15.6104 18.7366 15.6104Z" fill="#010101"/>
<path d="M23.481 14.6378C23.902 14.6378 24.2433 14.2965 24.2433 13.8755C24.2433 13.4546 23.902 13.1133 23.481 13.1133C23.06 13.1133 22.7188 13.4546 22.7188 13.8755C22.7188 14.2965 23.06 14.6378 23.481 14.6378Z" fill="#010101"/>
</svg>
