<svg width="15" height="15" viewBox="0 0 15 15" fill="none" xmlns="http://www.w3.org/2000/svg">
<path d="M12.1288 14.4063H2.9337C1.66307 14.4063 0.625 13.3682 0.625 12.0976V2.90245C0.625 1.63181 1.66307 0.59375 2.9337 0.59375H12.1288C13.3994 0.59375 14.4375 1.63181 14.4375 2.90245V12.0976C14.4375 13.3739 13.4051 14.4063 12.1288 14.4063Z" fill="white"/>
<path d="M7.53456 11.0476C6.58726 11.0476 5.69667 10.6789 5.02732 10.0096C4.35797 9.34022 3.98926 8.44964 3.98926 7.50233C3.98926 6.55503 4.35797 5.66445 5.02732 4.9951C5.69667 4.32574 6.58726 3.95703 7.53456 3.95703C8.48186 3.95703 9.37245 4.32574 10.0418 4.9951C10.7112 5.66445 11.0799 6.55503 11.0799 7.50233C11.0799 8.44964 10.7112 9.34022 10.0418 10.0096C9.36677 10.6789 8.48186 11.0476 7.53456 11.0476ZM7.53456 4.71147C5.99732 4.71147 4.7437 5.95942 4.7437 7.50233C4.7437 9.03958 5.99164 10.2932 7.53456 10.2932C9.0718 10.2932 10.3254 9.04525 10.3254 7.50233C10.3198 5.96509 9.0718 4.71147 7.53456 4.71147Z" fill="#010101"/>
<path d="M11.7706 3.8419C12.1465 3.8419 12.4513 3.53713 12.4513 3.16118C12.4513 2.78524 12.1465 2.48047 11.7706 2.48047C11.3946 2.48047 11.0898 2.78524 11.0898 3.16118C11.0898 3.53713 11.3946 3.8419 11.7706 3.8419Z" fill="#010101"/>
</svg>
