<svg width="104" height="24" viewBox="0 0 104 24" fill="none" xmlns="http://www.w3.org/2000/svg">
<path d="M40.5638 7.31181C41.0505 7.7994 41.5373 8.28699 42.024 8.77458C42.5108 9.26217 42.5108 10.2374 42.5108 11.2125C42.5108 12.1877 42.5108 13.1629 42.024 13.6505C42.024 15.1133 41.0505 15.6008 40.5638 16.0884C39.5903 16.0884 39.1035 16.576 38.13 16.576C37.6433 16.576 37.1565 16.576 36.6698 16.0884C36.183 16.0884 35.6963 15.6009 35.2095 15.6009V20.4768H32.2891V7.31181H34.7228L35.2095 8.28699C36.183 7.31181 37.1565 6.82422 38.6168 6.82422C39.1035 6.82422 40.077 6.82422 40.5638 7.31181ZM39.1035 13.6505C39.5903 13.1629 40.077 12.6753 40.077 11.7001C40.077 10.7249 39.5903 10.2374 39.1035 9.74976C38.6168 9.26217 38.13 9.26217 37.6433 9.26217C37.1565 9.26217 36.6698 9.26217 36.183 9.74976C35.6963 9.74976 35.6963 10.2374 35.2095 10.7249V12.6753C35.2095 13.1629 35.6963 13.6505 36.183 13.6505C36.183 14.1381 36.6698 14.1381 37.1565 14.1381C38.13 14.1381 38.6168 14.1381 39.1035 13.6505Z" fill="white"/>
<path d="M44.4574 9.26286C44.9442 8.77527 45.4309 7.80009 46.4044 7.80009C47.3779 7.3125 47.8647 7.3125 48.8382 7.3125C49.8117 7.3125 50.7852 7.3125 51.2719 7.80009C51.7587 8.28768 52.7322 8.77527 53.2189 9.75045C53.7056 10.238 53.7056 11.2132 53.7056 12.1884C53.7056 13.1636 53.7056 13.6512 53.2189 14.6264C52.7322 15.1139 52.2454 16.0891 51.2719 16.0891C50.7852 16.5767 49.8117 16.5767 48.8382 16.5767C47.8647 16.5767 46.8912 16.5767 46.4044 16.0891C45.9177 15.6015 44.9442 15.1139 44.4574 14.6264C43.9707 14.1388 43.9707 13.1636 43.9707 12.1884C43.9707 10.7256 43.9707 9.75045 44.4574 9.26286ZM47.3779 13.6512C47.8647 14.1388 48.3514 14.1388 48.8382 14.1388C49.3249 14.1388 49.8117 13.6512 50.2984 13.6512C50.7852 13.6512 50.7852 12.676 50.7852 11.7008C50.7852 10.7256 50.7852 10.238 50.2984 9.75045C49.8117 9.26286 49.3249 9.26286 48.8382 9.26286C48.3514 9.26286 47.8647 9.75045 47.3779 9.75045C46.8912 10.238 46.8912 10.7256 46.8912 11.7008C46.8912 12.1884 46.8912 13.1636 47.3779 13.6512Z" fill="white"/>
<path d="M58.5728 0V16.0905H55.6523V0H58.5728Z" fill="white"/>
<path d="M70.2553 7.3125L64.4143 20.4774H61.4939L63.4409 15.6015L59.5469 7.3125H62.9541L65.3878 12.676L67.8216 7.3125C67.3348 7.3125 70.2553 7.3125 70.2553 7.3125Z" fill="white"/>
<path d="M80.9643 7.31181V16.0884C80.9643 17.0636 80.9643 17.5512 80.4776 18.5264C79.9908 19.5016 79.5041 19.5016 78.5306 19.9892C77.5571 20.4768 76.5836 20.4768 75.6101 20.4768C75.1233 20.4768 74.1498 20.4768 73.6631 19.9892C73.1763 19.9892 72.6896 19.5016 72.2028 19.5016C71.7161 19.5016 71.2294 19.014 70.7426 18.5264L72.2028 16.576C73.1763 17.5512 73.6631 17.5512 74.1498 18.0388C74.6366 18.5264 75.1233 18.5264 75.6101 18.5264C76.0968 18.5264 77.0703 18.5264 77.5571 18.0388C78.0438 17.5512 78.0438 17.0636 78.0438 16.576V15.1133C77.5571 15.6008 77.5571 16.0884 76.5836 16.0884C76.0968 16.576 75.1233 16.576 74.6366 16.576C74.1498 16.576 73.1763 16.576 72.2028 16.0884C71.7161 15.6008 71.2294 15.1133 70.7426 14.6257C70.2559 13.1629 70.2559 12.6753 70.2559 11.7001C70.2559 10.7249 70.2559 10.2374 70.7426 9.26217C71.2294 8.28699 71.7161 7.7994 72.6896 7.31181C73.1763 6.82422 74.1498 6.82422 74.6366 6.82422C75.1233 6.82422 76.0968 6.82422 76.5836 7.31181C77.0703 7.31181 77.5571 7.7994 78.0438 8.28699L78.5306 7.7994H80.9643V7.31181ZM78.0438 12.6753V10.7249C78.0438 10.2374 77.5571 9.74976 77.0703 9.74976C76.5836 9.74976 76.0968 9.26217 75.6101 9.26217C75.1233 9.26217 74.1498 9.74976 73.6631 9.74976C73.1763 10.2374 73.1763 10.7249 73.1763 11.7001C73.1763 12.1877 73.1763 13.1629 73.6631 13.6505C74.1498 14.1381 74.6366 14.6257 75.6101 14.6257C76.5836 14.1381 77.5571 13.6505 78.0438 12.6753Z" fill="white"/>
<path d="M83.3973 9.26217C83.8841 8.28699 84.3708 7.7994 84.8576 7.31181C85.8311 6.82422 86.3178 6.82422 87.2913 6.82422C88.2648 6.82422 89.2383 6.82422 89.725 7.31181C90.2118 7.7994 91.1853 8.28699 91.672 8.77458C92.1588 9.74976 92.1588 10.2374 92.1588 11.2125C92.1588 12.1877 92.1588 13.1629 91.672 13.6505C91.1853 14.6257 90.6985 15.1133 89.725 15.6009C89.2383 16.0884 88.2648 16.0884 87.2913 16.0884C86.3178 16.0884 85.3443 16.0884 84.8576 15.6009C83.8841 15.1133 83.3973 14.6257 82.9106 14.1381C82.4238 13.1629 82.4238 12.6753 82.4238 11.7001C82.4238 10.7249 82.9106 9.74976 83.3973 9.26217ZM85.8311 13.6505C86.3178 14.1381 86.8046 14.1381 87.2913 14.1381C87.778 14.1381 88.2648 13.6505 88.7515 13.6505C89.2383 13.6505 89.725 12.1877 89.725 11.7001C89.725 10.7249 89.725 10.2374 89.2383 9.74976C88.7515 9.26217 88.2648 9.26217 87.7781 9.26217C87.2913 9.26217 86.8046 9.74976 86.3178 9.74976C85.8311 10.2374 85.8311 10.7249 85.8311 11.7001C85.3443 12.1877 85.8311 13.1629 85.8311 13.6505Z" fill="white"/>
<path d="M102.867 7.7994C103.354 8.28699 103.841 8.77458 103.841 9.74976V16.576H100.92V10.7249C100.92 9.74976 100.434 9.26217 99.4602 9.26217C98.9735 9.26217 98.4868 9.74976 98 10.2374C97.5133 10.7249 97.0265 11.7001 97.0265 12.6753V16.0884H94.5928V7.31181H97.0265V8.77458C97.5133 8.28699 98 7.7994 98.4867 7.31181C98.9735 6.82422 99.947 6.82422 100.434 6.82422C101.407 6.82422 101.894 7.31181 102.867 7.7994Z" fill="white"/>
<path d="M20.1207 7.31696C19.634 6.82937 19.1472 6.82937 18.6605 7.31696L14.7665 9.26732L12.3327 10.7301L8.43877 13.168C7.95202 13.6556 7.46527 13.6556 6.97853 13.168L3.57129 11.2177C3.08455 11.2177 3.08455 10.7301 3.08455 9.75491V6.34178C3.08455 5.85419 3.57129 5.3666 4.05804 4.87901L6.97853 3.41624C7.46527 2.92865 7.95202 2.92865 8.43877 3.41624L11.3593 4.87901C11.846 5.3666 12.3327 5.85419 12.3327 6.34178V8.77973L14.7665 7.31696V4.87901C14.7665 4.39142 14.2797 3.90383 13.793 3.41624L8.43877 0.490693C7.95202 0.00310237 7.46527 0.00310237 6.97853 0.490693L1.13756 3.41624C0.650809 3.90383 0.164062 4.39142 0.164062 4.87901V11.2177C0.164062 12.1929 0.650809 12.6805 1.13756 12.6805L6.97853 16.0936C7.46527 16.5812 7.95202 16.5812 8.43877 16.0936L12.3327 14.1432L14.7665 12.6805L18.6605 10.7301C19.1472 10.2425 19.634 10.2425 20.1207 10.7301L23.0412 12.1929C23.5279 12.1929 24.0147 12.6805 24.0147 13.168V16.5812C24.0147 17.0688 23.5279 17.5564 23.0412 18.044L20.1207 19.9943C19.634 20.4819 19.1472 20.4819 18.6605 19.9943L15.74 18.044C15.2532 18.044 14.7665 17.5564 14.7665 17.0688V14.6308L12.3327 16.0936V18.5315C12.3327 19.0191 12.8195 19.5067 13.3062 19.9943L19.1472 23.4074C19.634 23.895 20.1207 23.895 20.6075 23.4074L26.4484 19.9943C26.4484 19.5067 26.9352 19.0191 26.9352 18.5315V11.7053C26.9352 11.2177 26.4484 10.7301 25.9617 10.2425L20.1207 7.31696Z" fill="white"/>
</svg>
