<svg width="41" height="41" viewBox="0 0 41 41" fill="none" xmlns="http://www.w3.org/2000/svg">
<g opacity="0.5">
<path d="M37.5934 12.736H36.6997V4.41325H28.377V3.51953H37.5934V12.736Z" fill="#F8F8F8"/>
<path d="M4.30295 12.736H3.40918V3.51953H12.6256V4.41325H4.30295V12.736Z" fill="#F8F8F8"/>
<path d="M37.5934 37.4782H28.377V36.5845H36.6997V28.2617H37.5934V37.4782Z" fill="#F8F8F8"/>
<path d="M12.6256 37.4782H3.40918V28.2617H4.30295V36.5845H12.6256V37.4782Z" fill="#F8F8F8"/>
</g>
<g opacity="0.5">
<path d="M28.6 20.9445H12.4014V20.0508H28.6V20.9445Z" fill="#F8F8F8"/>
</g>
<g opacity="0.5">
<path d="M20.9474 28.5971H20.0537V12.3984H20.9474V28.5971Z" fill="#F8F8F8"/>
</g>
<path d="M20.9484 7.93173H20.0547V0H20.9484V7.93173Z" fill="#F8F8F8"/>
<path d="M20.9484 41.0021H20.0547V33.0703H20.9484V41.0021Z" fill="#F8F8F8"/>
<path d="M41.0001 20.9445H33.0684V20.0508H41.0001V20.9445Z" fill="#F8F8F8"/>
<path d="M7.93178 20.9445H0V20.0508H7.93178V20.9445Z" fill="#F8F8F8"/>
<path d="M23.7412 23.7373H17.2617V17.2578H23.7412V23.7373Z" fill="#F8F8F8"/>
</svg>
