<svg width="29" height="29" viewBox="0 0 29 29" fill="none" xmlns="http://www.w3.org/2000/svg">
<path d="M14.0049 0.084939C13.9505 0.139325 13.92 0.213087 13.92 0.29V8.7C13.92 11.9033 11.323 14.5 8.11987 14.5H0.290003C0.213089 14.5 0.139326 14.5306 0.084938 14.5849C0.0305519 14.6393 0 14.7131 0 14.79C0 14.8669 0.0305519 14.9407 0.084938 14.9951C0.139326 15.0494 0.213089 15.08 0.290003 15.08H8.11987C11.323 15.08 13.92 17.6767 13.92 20.88V28.71C13.92 28.7869 13.9505 28.8607 14.0049 28.9151C14.0593 28.9694 14.1331 29 14.21 29C14.2869 29 14.3607 28.9694 14.4151 28.9151C14.4694 28.8607 14.5 28.7869 14.5 28.71V20.88C14.5 17.6767 17.0967 15.08 20.3001 15.08H28.71C28.7869 15.08 28.8607 15.0494 28.9151 14.9951C28.9694 14.9407 29 14.8669 29 14.79C29 14.7131 28.9694 14.6393 28.9151 14.5849C28.8607 14.5306 28.7869 14.5 28.71 14.5H20.3001C17.0967 14.5 14.5 11.9033 14.5 8.7V0.29C14.5 0.213087 14.4694 0.139325 14.4151 0.084939C14.3607 0.0305535 14.2869 0 14.21 0C14.1331 0 14.0593 0.0305535 14.0049 0.084939Z" fill="white"/>
</svg>
