<svg width="105" height="24" viewBox="0 0 105 24" fill="none" xmlns="http://www.w3.org/2000/svg">
<g clip-path="url(#clip0_48_4684)">
<path d="M45.1726 7.49219L40.8299 17.5082H38.6561L34.3135 7.49219H36.4969L39.743 14.9921L42.9988 7.49219H45.1726Z" fill="white"/>
<path d="M48.4043 15.507H56.4104V17.5082H46.4004V7.49219H56.4104V9.49831H48.4043V11.4996H56.4104V13.5008H48.4043V15.507Z" fill="white"/>
<path d="M61.7474 13.5057C59.5252 13.5057 58.4092 12.5051 58.4092 10.4989C58.4092 8.49282 59.5203 7.49219 61.7474 7.49219H68.4191V9.49831H62.0822C60.9711 9.49831 60.4131 9.83347 60.4131 10.4989C60.4131 11.1644 60.9711 11.4996 62.0822 11.4996H65.0857C67.308 11.4996 68.424 12.5002 68.424 14.5063C68.424 16.5124 67.3129 17.5131 65.0857 17.5131H58.414V15.5118H64.7509C65.8621 15.5118 66.4201 15.1766 66.4201 14.5112C66.4201 13.8457 65.8621 13.5105 64.7509 13.5105H61.7474V13.5057Z" fill="white"/>
<path d="M73.7562 13.5057C71.534 13.5057 70.418 12.5051 70.418 10.4989C70.418 8.49282 71.5291 7.49219 73.7562 7.49219H80.4279V9.49831H74.091C72.9799 9.49831 72.4219 9.83347 72.4219 10.4989C72.4219 11.1644 72.9799 11.4996 74.091 11.4996H77.0945C79.3168 11.4996 80.4328 12.5002 80.4328 14.5063C80.4328 16.5124 79.3216 17.5131 77.0945 17.5131H70.4228V15.5118H76.7597C77.8709 15.5118 78.4289 15.1766 78.4289 14.5112C78.4289 13.8457 77.8709 13.5105 76.7597 13.5105H73.7562V13.5057Z" fill="white"/>
<path d="M82.4268 13.5105V11.5044H89.0984C89.9912 11.4996 90.4328 11.1644 90.4328 10.4989C90.4328 9.83347 89.8748 9.49831 88.7637 9.49831H82.4268V7.49219H89.0984C91.3207 7.49219 92.4367 8.49282 92.4367 10.4989C92.4367 11.6113 92.1019 12.2816 91.4372 12.5002C92.1019 12.7236 92.4367 13.3891 92.4367 14.5063C92.4367 16.5076 91.3256 17.5131 89.0984 17.5131H82.4268V15.5118H88.7637C89.8748 15.5118 90.4328 15.1766 90.4328 14.5112C90.4328 13.8457 89.9864 13.5105 89.0984 13.5105L82.4268 13.5203V13.5105Z" fill="white"/>
<path d="M104.446 15.507V17.5082H94.4365V7.49219H96.4405V15.507H104.446Z" fill="white"/>
<path d="M28.9966 7.61517H24.9645C24.9645 7.61517 24.9402 7.61517 24.9256 7.61517L29.1713 4.06924C29.3023 3.95752 29.3799 3.79722 29.3799 3.62721V0.703035C29.3799 0.382444 29.1227 0.125 28.8025 0.125H24.7704C24.6345 0.125 24.5035 0.173574 24.4016 0.261008L15.037 8.09119H24.193L15.037 15.7465L5.88099 8.09119H15.037L5.6675 0.261008C5.5656 0.173574 5.43459 0.125 5.29873 0.125H1.27146C0.951218 0.125 0.689203 0.382444 0.689203 0.703035V3.62721C0.689203 3.79722 0.766837 3.96237 0.897845 4.06924L5.14347 7.61517C5.14347 7.61517 5.1192 7.61517 5.10465 7.61517H1.07252C0.752281 7.61517 0.495117 7.87261 0.495117 8.1932V11.1174C0.495117 11.2874 0.572751 11.4525 0.703759 11.5594L15.037 23.5427L29.3702 11.5594C29.5012 11.4477 29.5788 11.2874 29.5788 11.1174V8.1932C29.5788 7.87261 29.3217 7.61517 29.0014 7.61517H28.9966Z" fill="white"/>
</g>
<defs>
<clipPath id="clip0_48_4684">
<rect width="103.744" height="23.3788" fill="white" transform="translate(0.703125 0.121094)"/>
</clipPath>
</defs>
</svg>
